<?xml version="1.0" encoding="UTF-8"?>
<svg version="1.1" xmlns="http://www.w3.org/2000/svg" width="652" height="482">
<path d="M0 0 C1.87697571 -0.00503792 1.87697571 -0.00503792 3.79187012 -0.01017761 C7.20945921 -0.01802752 10.62698752 -0.02135391 14.04458141 -0.0219934 C16.18497919 -0.02270652 18.32537069 -0.0248458 20.46576691 -0.02749062 C27.94788514 -0.03673035 35.42998562 -0.04082732 42.91210938 -0.04003906 C49.86200458 -0.039439 56.81182199 -0.04998027 63.76169753 -0.06578273 C69.74837663 -0.07890495 75.73503045 -0.08422099 81.72172379 -0.08358365 C85.28842551 -0.08332999 88.85505805 -0.08610763 92.4217453 -0.0967617 C96.40621667 -0.10833973 100.39051631 -0.10366735 104.375 -0.09765625 C105.54005066 -0.10327576 106.70510132 -0.10889526 107.90545654 -0.11468506 C127.15951162 -0.04118889 127.15951162 -0.04118889 134.07519531 5.68041992 C138.67502133 10.59476396 138.93423199 16.06055321 138.73144531 22.49682617 C138.05313394 28.79675917 135.39823315 33.11461151 130.44628906 37.14526367 C121.15687357 41.18413997 110.44466825 40.4428253 100.52246094 40.6628418 C99.38744141 40.69700195 98.25242187 40.73116211 97.08300781 40.76635742 C96.04877686 40.79141357 95.0145459 40.81646973 93.94897461 40.84228516 C91.27539924 40.9048211 91.27539924 40.9048211 89.44628906 43.14526367 C89.53740844 45.68477911 89.53740844 45.68477911 90.44628906 48.14526367 C94.01086133 50.52164519 95.54891042 50.39601851 99.77856445 50.40063477 C101.74189476 50.41107315 101.74189476 50.41107315 103.74488831 50.42172241 C104.79481555 50.42070086 104.79481555 50.42070086 105.86595345 50.41965866 C108.06604851 50.41869145 110.26565751 50.43166159 112.46568298 50.44863892 C118.72081643 50.49482812 124.97590308 50.5194771 131.23120117 50.52612305 C135.06040416 50.53117183 138.88910544 50.55559839 142.71813774 50.59144974 C144.16958016 50.60117837 145.62109225 50.60361798 147.07255745 50.59827805 C158.02760721 50.55989678 167.43255054 51.51060827 175.63378906 59.45776367 C176.46136719 60.25053711 177.28894531 61.04331055 178.14160156 61.86010742 C179.28242187 62.99125977 179.28242187 62.99125977 180.44628906 64.14526367 C181.06246094 64.72405273 181.67863281 65.3028418 182.31347656 65.89916992 C185.8253541 69.25730167 188.89304407 72.86603631 191.94628906 76.64526367 C204.98492968 92.7029184 221.70996758 103.78394044 242.50878906 106.83276367 C248.68785011 107.32316534 254.72617769 107.41496509 260.88378906 106.64526367 C276.28633033 104.78821969 276.28633033 104.78821969 282.44628906 109.14526367 C289.17993785 115.30174256 289.86490457 126.56857838 291.44628906 135.14526367 C291.94515625 134.63737305 292.44402344 134.12948242 292.95800781 133.60620117 C302.65880335 124.30597708 314.36036848 119.22697831 327.82128906 119.11791992 C342.64009414 119.75161882 356.36490231 124.94350227 366.64160156 135.95776367 C392.22085182 166.9629155 400.93962371 202.00392401 397.70678711 241.64916992 C397.22463404 248.12005278 396.96870462 254.59835077 396.75878906 261.08276367 C396.73438751 261.82571686 396.70998596 262.56867004 396.68484497 263.33413696 C396.31269671 275.54689658 396.65271843 287.63959363 397.38378906 299.83276367 C397.43164551 300.636474 397.47950195 301.44018433 397.52880859 302.26824951 C397.62412101 303.86663069 397.71947759 305.46500923 397.81488037 307.06338501 C397.86082336 307.83548309 397.90676636 308.60758118 397.95410156 309.40307617 C397.99923889 310.1613974 398.04437622 310.91971863 398.09088135 311.70101929 C400.31339764 349.95139196 391.87506949 382.87661733 375.94628906 417.52026367 C375.52001221 418.47723145 375.09373535 419.43419922 374.65454102 420.42016602 C371.31300804 427.47416531 367.22127134 432.62951453 360.22851562 436.3137207 C356.47109156 437.43672758 352.84680546 437.43112615 348.96191406 437.41088867 C348.14688416 437.41280212 347.33185425 437.41471558 346.49212646 437.41668701 C344.7707895 437.4180447 343.04944215 437.4143774 341.328125 437.40600586 C338.71883577 437.3953557 336.11024372 437.40588649 333.50097656 437.41870117 C331.82128756 437.41737842 330.141599 437.41481365 328.46191406 437.41088867 C327.69284729 437.41493713 326.92378052 437.4189856 326.13140869 437.42315674 C316.59776378 437.3423697 308.73127682 435.51055198 301.44628906 429.14526367 C291.44628906 418.7598247 291.44628906 418.7598247 291.44628906 415.14526367 C290.78628906 415.14526367 290.12628906 415.14526367 289.44628906 415.14526367 C289.51589844 416.48717773 289.51589844 416.48717773 289.58691406 417.85620117 C290.00424938 431.83693427 286.0686165 439.94622606 276.69091797 450.03344727 C274.65025748 452.19518526 272.58513491 454.33029748 270.50878906 456.45776367 C269.84073242 457.15208496 269.17267578 457.84640625 268.484375 458.56176758 C267.8234082 459.2248291 267.16244141 459.88789063 266.48144531 460.57104492 C265.89758057 461.16312744 265.31371582 461.75520996 264.7121582 462.36523438 C258.27868544 467.41926411 252.55807751 468.73513425 244.48490906 468.67770386 C243.50986587 468.68661624 242.53482268 468.69552862 241.53023273 468.70471108 C238.27769416 468.72960338 235.02581612 468.72625164 231.77319336 468.72290039 C229.43520199 468.73491451 227.0972189 468.74864544 224.75924683 468.76396179 C218.41824817 468.80036465 212.07742255 468.81199626 205.7363317 468.81863165 C199.76741041 468.8281431 193.79857325 468.85475831 187.82970653 468.88075639 C175.99822639 468.93155823 164.16677238 468.96318292 152.33520508 468.98413086 C140.87288386 469.00443901 129.41071767 469.03877254 117.94848633 469.08862305 C116.89013025 469.09322341 116.89013025 469.09322341 115.81039324 469.09791671 C115.10600486 469.1009791 114.40161648 469.1040415 113.675883 469.10719669 C101.26725734 469.16102457 88.85862087 469.20300266 76.44993019 469.23859024 C71.17547742 469.25375239 65.90105426 469.27240981 60.62662315 469.29378891 C54.40910101 469.31823205 48.19163791 469.33221737 41.9740715 469.33825111 C39.69690802 469.34202374 37.41974715 469.34921124 35.14260674 469.36013222 C32.02454258 469.37447267 28.90671135 469.37614976 25.78862 469.37472534 C24.44996235 469.38520757 24.44996235 469.38520757 23.08426112 469.39590156 C6.36982883 469.33755356 -3.97831096 462.78969557 -16.74121094 452.77026367 C-39.508296 435.00239546 -68.22935681 423.59178606 -97.35449219 424.18823242 C-99.23794517 424.21062309 -101.12140947 424.23207822 -103.00488281 424.25268555 C-105.93415675 424.28967195 -108.86283756 424.33269526 -111.79174805 424.39208984 C-129.45156717 424.73247353 -141.75386828 422.45689221 -155.11621094 410.14526367 C-165.07382461 399.82079054 -169.8771521 387.72640037 -169.80908203 373.48803711 C-169.81270248 372.55695129 -169.81632294 371.62586548 -169.8200531 370.66656494 C-169.82691143 368.65867844 -169.82945927 366.65077343 -169.82810593 364.64287567 C-169.82713645 361.46534193 -169.84013019 358.28814248 -169.85708618 355.11065674 C-169.90324989 346.08152782 -169.92798736 337.05243638 -169.93457031 328.02319336 C-169.93957648 322.48954986 -169.96377109 316.95626072 -169.999897 311.42273712 C-170.00970647 309.31600316 -170.01202073 307.20922055 -170.00672531 305.1024704 C-169.99967782 302.16289618 -170.01688597 299.22438569 -170.03955078 296.28491211 C-170.03137833 295.41419067 -170.02320587 294.54346924 -170.01478577 293.6463623 C-170.06940018 288.79967182 -170.06940018 288.79967182 -172.39834595 284.63653564 C-176.42770679 281.84866774 -180.13962866 281.89257815 -184.92871094 281.77026367 C-186.23582031 281.7212793 -187.54292969 281.67229492 -188.88964844 281.62182617 C-193.59303848 282.29373903 -194.7173266 283.36456115 -197.55371094 287.14526367 C-198.27253405 290.40494993 -198.21375958 293.59049417 -198.16552734 296.91748047 C-198.17119217 297.89701187 -198.17685699 298.87654327 -198.18269348 299.88575745 C-198.19619145 303.12238887 -198.17524639 306.35789986 -198.15527344 309.59448242 C-198.16077469 311.85025295 -198.16890026 314.10601847 -198.17953491 316.36177063 C-198.20244029 322.30430479 -198.19819653 328.24647148 -198.18572998 334.18902588 C-198.16744277 343.68231326 -198.1774886 353.175383 -198.21158981 362.66861916 C-198.21766976 365.9755931 -198.20445977 369.28209794 -198.18960571 372.58903503 C-198.1925561 374.63471597 -198.1962122 376.68039604 -198.20068359 378.72607422 C-198.19139328 379.63604156 -198.18210297 380.54600891 -198.17253113 381.48355103 C-198.21781889 388.85566821 -199.49543456 395.69029975 -203.30371094 402.08276367 C-208.91953235 407.23059996 -214.36549122 407.64231929 -221.74511719 407.43041992 C-226.69891118 406.9274617 -229.42536818 405.33629213 -232.80371094 401.77026367 C-235.63694313 397.52041538 -236.80324893 394.01796422 -236.80818653 388.91401196 C-236.81401872 387.87442182 -236.81985092 386.83483168 -236.82585984 385.76373881 C-236.82208052 384.62814833 -236.8183012 383.49255785 -236.81440735 382.32255554 C-236.8182329 381.11111289 -236.82205844 379.89967024 -236.82599992 378.65151721 C-236.8345353 375.29191647 -236.83409546 371.9325345 -236.82981932 368.57293999 C-236.82735396 364.94842572 -236.83636396 361.32393723 -236.84385681 357.69943237 C-236.85661173 350.59936911 -236.85839647 343.49934365 -236.85605655 336.39927085 C-236.8542739 330.62761949 -236.8560219 324.8559796 -236.86028099 319.08432961 C-236.86087618 318.26303455 -236.86147137 317.44173949 -236.86208459 316.59555671 C-236.86329634 314.92710123 -236.86451048 313.25864575 -236.86572697 311.59019027 C-236.87660583 295.93972128 -236.87443854 280.28927384 -236.86834212 264.63880364 C-236.86317424 250.32437602 -236.87442439 236.01001647 -236.89344034 221.69560232 C-236.91281794 206.99619764 -236.92107478 192.29682517 -236.91731709 177.59740764 C-236.91540472 169.34540461 -236.91789595 161.09345951 -236.93203163 152.8414669 C-236.9439455 145.81537408 -236.94535037 138.78937482 -236.93324146 131.76328071 C-236.92735242 128.17949749 -236.92625386 124.5958854 -236.93824387 121.01211357 C-236.9510997 117.12429849 -236.94063851 113.23674274 -236.92793274 109.34892273 C-236.93530702 108.22002442 -236.94268131 107.0911261 -236.95027906 105.92801875 C-236.9004722 98.6889906 -236.54366207 92.2160243 -231.24121094 86.77026367 C-225.27375715 83.1620358 -219.24977966 82.03417902 -212.44042969 83.64526367 C-207.75433698 85.19846954 -204.55954229 87.10886157 -201.55371094 91.14526367 C-198.87314589 97.77385333 -198.13051841 104.01808608 -198.24487305 111.10546875 C-198.24903481 112.51475647 -198.24903481 112.51475647 -198.25328064 113.95251465 C-198.26545591 117.02352202 -198.29850147 120.09394242 -198.33105469 123.16479492 C-198.34174371 125.31328096 -198.35079641 127.46177571 -198.35829163 129.61027527 C-198.38098456 135.24230539 -198.4200031 140.8740839 -198.46429443 146.50598145 C-198.53471541 155.53679298 -198.58976737 164.56759843 -198.62664986 173.59860802 C-198.64333279 176.74790582 -198.67288158 179.89690635 -198.70335388 183.0460968 C-198.71381368 184.97473884 -198.7237742 186.90338366 -198.7331543 188.83203125 C-198.74505798 189.70536606 -198.75696167 190.57870087 -198.76922607 191.47850037 C-198.77942737 196.67896056 -198.56789187 200.84406195 -194.99121094 204.93041992 C-191.24585768 206.79709438 -187.68101016 206.61902589 -183.55371094 206.58276367 C-182.74675781 206.60274414 -181.93980469 206.62272461 -181.10839844 206.64331055 C-179.93664062 206.64234375 -179.93664062 206.64234375 -178.74121094 206.64135742 C-178.03351563 206.64321045 -177.32582031 206.64506348 -176.59667969 206.64697266 C-173.565146 205.90249348 -172.41225687 204.62553868 -170.55371094 202.14526367 C-169.9129156 199.11192105 -169.9129156 199.11192105 -169.94433594 195.71948242 C-169.91210938 194.4465332 -169.87988281 193.17358398 -169.84667969 191.86206055 C-169.83201174 190.51896531 -169.81768974 189.17586626 -169.80371094 187.83276367 C-169.7740625 186.54563477 -169.74441406 185.25850586 -169.71386719 183.93237305 C-169.63122839 180.00309515 -169.584654 176.07527442 -169.55371094 172.14526367 C-169.54549316 171.11428055 -169.54549316 171.11428055 -169.53710938 170.06246948 C-169.37072939 161.42602674 -169.37072939 161.42602674 -170.05371094 152.83276367 C-172.22680329 136.02325516 -170.37348962 122.27572844 -160.55371094 108.14526367 C-152.78549155 98.26401501 -142.34955607 86.65513172 -129.55371094 84.14526367 C-127.45061232 84.07506679 -125.34536737 84.06092122 -123.24121094 84.08276367 C-121.37916016 84.09436523 -121.37916016 84.09436523 -119.47949219 84.10620117 C-116.89355158 84.13193192 -114.30761396 84.15796599 -111.72167969 84.18432617 C-96.95025487 84.99244393 -96.95025487 84.99244393 -83.55371094 80.14526367 C-81.28500556 77.68964005 -81.28500556 77.68964005 -79.17871094 74.89526367 C-67.79518324 60.68921925 -54.87233363 52.78007695 -36.55371094 50.14526367 C-34.38841087 50.05649441 -32.22082871 50.01466639 -30.05371094 50.01245117 C-28.83683594 50.01116211 -27.61996094 50.00987305 -26.36621094 50.00854492 C-24.47902344 50.0143457 -24.47902344 50.0143457 -22.55371094 50.02026367 C-21.29558594 50.01639648 -20.03746094 50.0125293 -18.74121094 50.00854492 C-16.91589844 50.01047852 -16.91589844 50.01047852 -15.05371094 50.01245117 C-13.95027344 50.0135791 -12.84683594 50.01470703 -11.70996094 50.01586914 C-8.57598144 50.14435066 -5.63555878 50.58004578 -2.55371094 51.14526367 C1.16678536 51.49767875 4.73698432 51.66669948 8.44628906 51.14526367 C10.99982422 49.19598432 10.99982422 49.19598432 11.44628906 46.14526367 C10.7468797 42.87711963 10.7468797 42.87711963 9.44628906 40.14526367 C6.70384523 39.41932266 4.69920849 39.10208231 1.88378906 39.58276367 C-8.61900297 41.30140237 -18.56202331 40.24810191 -28.05371094 35.33276367 C-31.77577217 32.07596009 -33.83475774 28.0341454 -34.55371094 23.14526367 C-34.93831923 17.27998717 -34.52549343 13.39541274 -31.55371094 8.14526367 C-22.74891671 -0.65953055 -11.64974856 -0.00450029 0 0 Z M-42.87402344 94.16088867 C-43.46957031 94.89823242 -44.06511719 95.63557617 -44.67871094 96.39526367 C-45.34386719 97.1919043 -46.00902344 97.98854492 -46.69433594 98.80932617 C-47.81438721 100.2164494 -48.93030018 101.62690149 -50.03808594 103.04370117 C-59.87419159 115.25594471 -74.4401969 120.83747715 -89.55371094 123.14526367 C-94.56569455 123.3994475 -99.53943258 123.30179682 -104.55371094 123.14526367 C-107.07415021 123.06849902 -109.59505449 123.00548272 -112.11621094 122.95776367 C-113.75783203 122.90555664 -113.75783203 122.90555664 -115.43261719 122.85229492 C-120.52837912 123.33062051 -123.68805247 125.29927926 -127.30371094 128.83276367 C-131.95031001 134.88994918 -131.84526884 142.48719689 -131.80767822 149.78515625 C-131.8107982 150.72556417 -131.81391819 151.66597208 -131.81713271 152.6348772 C-131.82507738 155.76991451 -131.81880283 158.90475635 -131.8125 162.03979492 C-131.81521143 164.29397698 -131.81877321 166.54815815 -131.82312012 168.80233765 C-131.8322283 174.91379855 -131.8287063 181.02519183 -131.82236195 187.1366539 C-131.81729385 193.53641694 -131.82199565 199.93617423 -131.82513428 206.3359375 C-131.82900444 217.77071539 -131.82279418 229.20545587 -131.8126156 240.64022744 C-131.80368068 250.99836671 -131.8052329 261.35646115 -131.81445312 271.71459961 C-131.82516721 283.75652176 -131.8291343 295.79841006 -131.8232286 307.84033871 C-131.82011264 314.20986444 -131.81968932 320.57935932 -131.82630157 326.94888306 C-131.83208422 332.93742569 -131.82806121 338.92588376 -131.81651306 344.91441727 C-131.81387141 347.11059046 -131.81462311 349.30677079 -131.81903839 351.50294113 C-131.82451473 354.5038468 -131.81763424 357.50448256 -131.80767822 360.50537109 C-131.81213967 361.37152951 -131.81660111 362.23768793 -131.82119775 363.13009357 C-131.77796374 369.86265087 -131.4062205 376.90272789 -126.61621094 382.08276367 C-126.1121875 382.64866211 -125.60816406 383.21456055 -125.08886719 383.79760742 C-120.58187013 387.75413155 -113.13406544 386.30211688 -107.55371094 386.14526367 C-105.32328482 385.99639749 -103.09393246 385.83024648 -100.86621094 385.64526367 C-65.83734273 382.77131372 -32.11649172 393.39768121 -4.43261719 414.94213867 C6.56509512 423.35829843 15.98247509 430.30056021 30.04243469 430.28570557 C30.91887719 430.28867669 31.79531968 430.29164781 32.69832104 430.29470897 C35.64076858 430.30339385 38.58317542 430.30490404 41.52563477 430.30639648 C43.6330677 430.31102477 45.74049979 430.31604945 47.84793091 430.32144165 C53.57731986 430.33456587 59.30669709 430.34101056 65.03609872 430.34545231 C68.61485404 430.34838276 72.19360614 430.3524875 75.77235985 430.35695648 C86.96739605 430.37063095 98.16242493 430.38029808 109.3574689 430.38415837 C122.28453078 430.38864031 135.21148698 430.40619477 148.13851672 430.43515897 C158.12843522 430.45676615 168.11832396 430.46686213 178.10826558 430.46819949 C184.07599046 430.46924813 190.043616 430.47516865 196.0113163 430.4930191 C201.62472992 430.50948323 207.23796933 430.51166328 212.85139847 430.5028801 C214.91092711 430.50210886 216.97046506 430.50646382 219.02997017 430.51633835 C221.84325207 430.52903525 224.65591488 430.52319321 227.4691925 430.51275635 C228.28262802 430.52081275 229.09606353 430.52886916 229.93414861 430.53716969 C235.86639491 430.48575919 240.65302016 429.43427104 245.37207031 425.56713867 C245.8296875 425.01541992 246.28730469 424.46370117 246.75878906 423.89526367 C247.22929687 423.35385742 247.69980469 422.81245117 248.18457031 422.25463867 C251.22347079 417.17412394 251.69612327 411.73026652 251.75488281 405.92651367 C251.78003201 404.56843626 251.80543019 403.21036345 251.83105469 401.85229492 C251.85976988 399.7460235 251.88383742 397.63983126 251.90258789 395.53344727 C251.92439809 393.47657746 251.96382481 391.42057674 252.00488281 389.36401367 C252.0183374 388.14649414 252.03179199 386.92897461 252.0456543 385.67456055 C252.63230926 380.50656293 253.96795014 376.50988422 257.88378906 372.89526367 C269.93248322 366.97660689 284.40403228 366.1893983 297.32128906 369.64526367 C310.12036427 374.21522061 317.73153329 383.26481662 325.19628906 394.14526367 C327.71770197 397.59157308 327.71770197 397.59157308 331.44628906 399.14526367 C334.99296587 399.59803092 336.79383803 399.5475029 339.86035156 397.65698242 C343.26435973 394.35067237 344.93337393 390.86650283 346.88378906 386.58276367 C347.26994385 385.74938477 347.65609863 384.91600586 348.05395508 384.05737305 C355.59882845 367.31958864 359.75031033 350.77812625 359.73681641 332.390625 C359.74281631 331.04551832 359.74962515 329.70041505 359.75717163 328.35531616 C359.77469195 324.73308915 359.77952109 321.11095687 359.7808032 317.48869157 C359.78223353 315.21622842 359.78651967 312.94378869 359.79179764 310.67133141 C359.81025292 302.71658193 359.81847407 294.76189908 359.81689453 286.80712891 C359.8156949 279.43567598 359.83677366 272.06451667 359.86838186 264.69313794 C359.89468425 258.32837377 359.905256 251.96370466 359.90398371 245.59888667 C359.90347809 241.81347234 359.90893637 238.02831931 359.93033981 234.24295998 C360.0879395 204.25799237 355.76330601 183.99064772 334.40332031 161.64135742 C332.01040155 159.81204028 330.45282452 159.28619502 327.44628906 159.14526367 C322.04762702 161.93618876 318.63944806 167.15791318 315.44628906 172.14526367 C309.56419601 181.31811833 302.97971284 186.31337525 292.68066406 189.73120117 C281.2306486 191.85305719 268.24422874 190.60386456 257.88378906 185.33276367 C254.30771518 182.1234666 252.65854889 178.84455442 252.06152344 174.06494141 C252.05443359 172.99703369 252.04734375 171.92912598 252.04003906 170.82885742 C252.018125 169.65258789 251.99621094 168.47631836 251.97363281 167.2644043 C251.95537464 164.80607118 251.93714556 162.34773784 251.91894531 159.8894043 C251.89703125 158.71442383 251.87511719 157.53944336 251.85253906 156.32885742 C251.84544922 155.26207764 251.83835937 154.19529785 251.83105469 153.09619141 C251.39188843 149.72804259 250.4953874 147.83728177 248.44628906 145.14526367 C245.23943377 144.14757536 242.99592236 144.05014982 239.69238281 144.62182617 C224.18481019 147.12244558 208.66395878 144.13935037 195.79980469 134.97192383 C188.82519947 129.68021552 183.3567779 123.88398291 177.88012695 117.07714844 C173.83817753 112.20807725 169.45490666 107.70592068 165.00878906 103.20776367 C164.13158203 102.28930664 163.254375 101.37084961 162.35058594 100.42456055 C161.03864258 99.09714844 161.03864258 99.09714844 159.70019531 97.74291992 C158.5449939 96.5596814 158.5449939 96.5596814 157.36645508 95.35253906 C148.13154013 88.37211385 138.25321453 88.57436689 127.18994141 88.64355469 C125.45762189 88.63976609 123.72530541 88.63426161 121.99299622 88.62718201 C117.3133182 88.61328268 112.63401012 88.62435725 107.95435286 88.64089322 C103.04538184 88.65479751 98.13643114 88.6482777 93.22744751 88.64476013 C84.98783442 88.64206276 76.74836739 88.6554946 68.50878906 88.67871094 C58.99404283 88.70533533 49.47954046 88.70706037 39.96476972 88.69532257 C30.79386053 88.68453074 21.62303922 88.69074176 12.45213699 88.70487785 C8.55678851 88.71062368 4.66150464 88.71056608 0.76615524 88.70581245 C-3.82224459 88.70102795 -8.41037851 88.71120524 -12.9987278 88.73276711 C-14.67887666 88.73831444 -16.35905118 88.7388192 -18.03920174 88.73381424 C-31.33167809 88.34722909 -31.33167809 88.34722909 -42.87402344 94.16088867 Z " fill="#000000" transform="translate(245.5537109375,6.854736328125)"/>
<path d="M0 0 C3.73447412 2.77914353 5.39773383 6.00199557 7.6875 10 C9.15294079 12.36431711 10.63041251 14.71688413 12.125 17.0625 C12.48440674 17.6397583 12.84381348 18.2170166 13.21411133 18.81176758 C16.00954708 23.21350323 19.21246916 27.11700835 22.6875 31 C22.70208252 30.20303711 22.71666504 29.40607422 22.73168945 28.58496094 C22.80617475 24.97281876 22.90283512 21.36160026 23 17.75 C23.02255859 16.49574219 23.04511719 15.24148438 23.06835938 13.94921875 C23.10380859 12.74394531 23.13925781 11.53867187 23.17578125 10.296875 C23.20196533 9.18666992 23.22814941 8.07646484 23.25512695 6.93261719 C23.73186544 3.69908656 24.40255282 2.30348015 26.6875 0 C30.73006003 -1.34752001 34.45802153 -1.43594986 38.6875 -1 C41.97681514 0.72689045 42.5015267 1.4420801 43.6875 5 C43.79150562 7.02343146 43.83609611 9.05010799 43.84863281 11.07617188 C43.85824036 12.32756958 43.8678479 13.57896729 43.87774658 14.86828613 C43.88259346 16.23510557 43.88687256 17.60192712 43.890625 18.96875 C43.89637785 20.369751 43.90213557 21.77075197 43.90789795 23.17175293 C43.91839622 26.10718146 43.9242471 29.04258269 43.92773438 31.97802734 C43.93322823 35.74101014 43.95727968 39.50363276 43.98570633 43.26650238 C44.00431664 46.15925153 44.00953735 49.05191344 44.01107025 51.94471741 C44.01409907 53.33221921 44.02213537 54.7197194 44.03525543 56.10716248 C44.05228643 58.04597839 44.04859514 59.98494299 44.04394531 61.92382812 C44.04941376 63.5790448 44.04941376 63.5790448 44.05499268 65.2677002 C43.6875 68 43.6875 68 42.34588623 69.84118652 C39.81033918 71.61292464 37.49234267 71.64055859 34.4375 71.875 C33.33921875 71.97554688 32.2409375 72.07609375 31.109375 72.1796875 C27.04772506 71.96640451 23.91267383 71.51032528 20.6875 69 C18.27045373 65.72694796 16.49703046 62.19836863 14.6875 58.5625 C13.65087434 56.5710235 12.61312072 54.58013371 11.57421875 52.58984375 C11.08099121 51.62933105 10.58776367 50.66881836 10.07958984 49.67919922 C8.30832137 46.2702374 6.43295483 42.94489974 4.5 39.625 C3.97019531 38.70976562 3.44039062 37.79453125 2.89453125 36.8515625 C2.49621094 36.24054688 2.09789062 35.62953125 1.6875 35 C1.3575 35 1.0275 35 0.6875 35 C0.67291748 35.94842773 0.65833496 36.89685547 0.64331055 37.87402344 C0.58217436 41.4004794 0.5080087 44.92616443 0.42504883 48.45214844 C0.3918412 49.9767834 0.36379622 51.50154006 0.34106445 53.02636719 C0.30744042 55.22122954 0.25512458 57.41498088 0.19921875 59.609375 C0.17303467 60.92905273 0.14685059 62.24873047 0.11987305 63.60839844 C-0.32909916 67.13020639 -0.74563382 68.59252763 -3.3125 71 C-9.37804873 72.51638718 -12.89240388 72.09719778 -18.3125 69 C-19.39662401 65.74762798 -19.45245394 63.34655953 -19.47363281 59.92382812 C-19.48324036 58.67243042 -19.4928479 57.42103271 -19.50274658 56.13171387 C-19.50759346 54.76489443 -19.51187256 53.39807288 -19.515625 52.03125 C-19.52137785 50.630249 -19.52713557 49.22924803 -19.53289795 47.82824707 C-19.54339622 44.89281854 -19.5492471 41.95741731 -19.55273438 39.02197266 C-19.55822823 35.25898986 -19.58227968 31.49636724 -19.61070633 27.73349762 C-19.62931664 24.84074847 -19.63453735 21.94808656 -19.63607025 19.05528259 C-19.63909907 17.66778079 -19.64713537 16.2802806 -19.66025543 14.89283752 C-19.67728643 12.95402161 -19.67359514 11.01505701 -19.66894531 9.07617188 C-19.67259094 7.97269409 -19.67623657 6.86921631 -19.67999268 5.7322998 C-19.3125 3 -19.3125 3 -17.97772217 1.18273926 C-12.90078678 -2.42320048 -5.67131531 -1.71209519 0 0 Z " fill="#000003" transform="translate(224.3125,287)"/>
<path d="M0 0 C5.57182628 5.43592808 8.97237923 12.91052894 12.6875 19.6875 C14.305253 22.62908991 15.93036407 25.56637011 17.5625 28.5 C18.39394531 30.01013672 18.39394531 30.01013672 19.2421875 31.55078125 C19.67789063 32.19402344 20.11359375 32.83726562 20.5625 33.5 C21.2225 33.5 21.8825 33.5 22.5625 33.5 C22.58231934 32.57662842 22.60213867 31.65325684 22.62255859 30.7019043 C22.70067739 27.27438826 22.78736997 23.84731202 22.87988281 20.42016602 C22.91815347 18.93717788 22.95300978 17.45409752 22.984375 15.97094727 C23.030068 13.83836928 23.08805338 11.70642509 23.1484375 9.57421875 C23.1798584 8.29119873 23.2112793 7.00817871 23.24365234 5.6862793 C23.5625 2.5 23.5625 2.5 25.5625 -0.5 C28.28142564 -1.40630855 30.17593987 -1.72201578 33 -1.8125 C34.14275391 -1.86857422 34.14275391 -1.86857422 35.30859375 -1.92578125 C38.5126338 -1.32051199 39.54807168 -0.03437991 41.5625 2.5 C42.06370544 5.47317505 42.06370544 5.47317505 42.06420898 8.98095703 C42.07358994 10.29556915 42.08297089 11.61018127 42.09263611 12.96463013 C42.08216 14.39569756 42.07079128 15.8267587 42.05859375 17.2578125 C42.05874874 18.72704134 42.06023764 20.19627059 42.06300354 21.66549683 C42.06438676 24.74056123 42.05184022 27.81515874 42.02905273 30.89013672 C42.00061762 34.83599338 42.00341965 38.78107734 42.01614285 42.72699165 C42.02308832 45.75872427 42.0153247 48.79027744 42.00288582 51.82198715 C41.99836377 53.27727445 41.99804109 54.73258095 42.00195122 56.18787003 C42.00485328 58.21788958 41.98623307 60.2479058 41.96655273 62.27783203 C41.96114975 63.4338089 41.95574677 64.58978577 41.95018005 65.78079224 C41.82224564 66.6781308 41.69431122 67.57546936 41.5625 68.5 C36.92430226 71.59213183 32.04803682 71.52185473 26.5625 71.5 C20.14644066 69.83657721 17.77916381 64.88424782 14.5625 59.5 C13.25327842 57.33135076 11.9406012 55.16478502 10.625 53 C10.01785156 51.9790625 9.41070312 50.958125 8.78515625 49.90625 C6.05144304 45.52369451 2.7798323 41.53255577 -0.4375 37.5 C-0.4468457 38.35754883 -0.45619141 39.21509766 -0.46582031 40.09863281 C-0.50991291 43.28972679 -0.57156056 46.47986756 -0.64501953 49.67041016 C-0.67319099 51.04951651 -0.69442472 52.42878318 -0.70849609 53.80810547 C-0.72997545 55.79422949 -0.77873132 57.77999909 -0.828125 59.765625 C-0.8595459 61.55661621 -0.8595459 61.55661621 -0.89160156 63.38378906 C-1.537047 67.06825488 -2.48642852 68.26936201 -5.4375 70.5 C-8.12890625 70.99609375 -8.12890625 70.99609375 -11 70.9375 C-11.95003906 70.93621094 -12.90007812 70.93492187 -13.87890625 70.93359375 C-16.81408752 70.43618135 -17.69353082 69.86800927 -19.4375 67.5 C-20.51466111 64.26851668 -20.57083015 61.91464519 -20.58276367 58.515625 C-20.58914352 57.28424805 -20.59552338 56.05287109 -20.60209656 54.78417969 C-20.60362505 53.43945352 -20.60473911 52.09472683 -20.60546875 50.75 C-20.60868206 49.37141892 -20.61204619 47.99283818 -20.61555481 46.61425781 C-20.62154076 43.72590341 -20.6233952 40.83757892 -20.62280273 37.94921875 C-20.622701 34.24684901 -20.63636723 30.54467055 -20.65357494 26.84234619 C-20.66468727 23.99592201 -20.6667222 21.14954424 -20.66619301 18.30310059 C-20.66737374 16.93794087 -20.67180078 15.57277998 -20.67952538 14.2076416 C-20.68931167 12.29991115 -20.68518649 10.3921246 -20.68041992 8.484375 C-20.68184494 7.39866211 -20.68326996 6.31294922 -20.68473816 5.19433594 C-20.4375 2.5 -20.4375 2.5 -18.4375 -0.5 C-12.46552144 -2.49065952 -5.76957042 -2.51763073 0 0 Z " fill="#000001" transform="translate(404.4375,287.5)"/>
<path d="M0 0 C4.5748612 3.70525949 9.54609674 8.36159001 10.203125 14.40625 C9.890625 17.53125 9.890625 17.53125 8.015625 19.84375 C4.23136815 22.84889515 1.7111421 22.85261781 -3.109375 22.53125 C-7.22564487 21.04238643 -9.9028226 18.850776 -13.046875 15.90625 C-16.65313353 12.66405186 -19.0994103 11.34569575 -24.109375 11.53125 C-29.97407438 13.32656614 -32.98885104 17.48962171 -36.109375 22.53125 C-38.27095088 29.01597764 -37.78973895 34.83922082 -34.796875 40.96875 C-32.52069382 45.22719107 -30.78321918 47.97330194 -26.109375 49.53125 C-20.51143998 49.89832771 -16.94806231 49.71770262 -12.109375 46.53125 C-11.779375 45.54125 -11.449375 44.55125 -11.109375 43.53125 C-11.67527344 43.33789062 -12.24117188 43.14453125 -12.82421875 42.9453125 C-13.55769531 42.68492187 -14.29117188 42.42453125 -15.046875 42.15625 C-15.77777344 41.90101563 -16.50867188 41.64578125 -17.26171875 41.3828125 C-19.109375 40.53125 -19.109375 40.53125 -20.109375 38.53125 C-20.54443533 30.70016412 -20.54443533 30.70016412 -18.109375 27.53125 C-10.53303502 25.43828608 -0.73812036 24.23654771 6.890625 26.53125 C9.58425145 28.63359259 10.6196943 30.05916175 11.2409668 33.43481445 C11.8423082 39.20231462 12.10551306 44.92089095 12.140625 50.71875 C12.16125 51.58177734 12.181875 52.44480469 12.203125 53.33398438 C12.23488457 58.52270487 11.7105102 61.99717143 8.890625 66.53125 C4.38211749 66.71527071 0.65395881 66.7856946 -3.671875 65.34375 C-7.60099539 64.41504882 -8.91249629 65.22162314 -12.484375 66.77734375 C-20.88269192 69.18936037 -32.01640003 68.75627699 -39.90234375 64.9140625 C-49.29197019 59.03100452 -54.6595846 51.75877506 -57.421875 41.03125 C-59.5260072 29.47875496 -57.75245396 17.67839055 -51.61328125 7.5625 C-39.55343711 -8.72612065 -16.4336507 -10.95576713 0 0 Z " fill="#000002" transform="translate(333.109375,291.46875)"/>
<path d="M0 0 C0.75539063 0.09023437 1.51078125 0.18046875 2.2890625 0.2734375 C4.375 0.625 4.375 0.625 7.375 1.625 C7.703125 3.73046875 7.703125 3.73046875 7.375 6.625 C5.68884301 8.8954976 4.0371473 10.87985005 2.125 12.9375 C-5.41404984 21.15282391 -5.41404984 21.15282391 -7.875 31.75 C-6.09139457 42.04546499 1.85073694 51.73225826 8.13647461 59.83081055 C10.82790515 63.40146657 12.00551116 66.16426195 12.375 70.625 C6.58604475 73.06245484 1.74975803 74.95068425 -4.55859375 73.0390625 C-15.42634271 68.42079881 -20.66685648 57.64974644 -25.625 47.625 C-27.99874861 47.29074265 -27.99874861 47.29074265 -30.625 47.625 C-32.60480799 49.04370898 -32.60480799 49.04370898 -33.625 51.625 C-33.9645709 55.25662144 -34.06136203 58.78446953 -34.06445312 62.42578125 C-34.15606805 66.03351395 -34.24969257 68.06203885 -36.2890625 71.12109375 C-39.22246912 73.00965821 -41.08665487 73.19188316 -44.5625 73.1875 C-45.58214844 73.20941406 -46.60179687 73.23132813 -47.65234375 73.25390625 C-50.69998163 72.60913661 -52.43344536 71.81902245 -54.57865906 69.54380798 C-57.06292176 64.98810065 -56.26103632 59.22655752 -56.18359375 54.1875 C-56.18126236 52.87467041 -56.17893097 51.56184082 -56.17652893 50.20922852 C-56.17037505 47.43503871 -56.14773498 44.66166001 -56.11206055 41.88769531 C-56.06678853 38.34020039 -56.05203373 34.79343891 -56.04832363 31.24568176 C-56.04281771 27.85118151 -56.0194376 24.45692697 -55.99609375 21.0625 C-55.99073105 19.79156494 -55.98536835 18.52062988 -55.97984314 17.21118164 C-55.96385574 16.02645264 -55.94786835 14.84172363 -55.93139648 13.62109375 C-55.92075668 12.58138428 -55.91011688 11.5416748 -55.89915466 10.47045898 C-55.61138036 7.48364133 -54.95310765 5.30730357 -53.625 2.625 C-50.60984741 0.44298168 -47.78388125 0.30025936 -44.125 0.25 C-43.1865625 0.22164062 -42.248125 0.19328125 -41.28125 0.1640625 C-38.625 0.625 -38.625 0.625 -36.328125 2.1015625 C-33.85903566 5.75989212 -33.95391945 9.0487791 -33.875 13.375 C-33.84535156 14.16777344 -33.81570313 14.96054688 -33.78515625 15.77734375 C-33.71472213 17.72602094 -33.66756518 19.67551495 -33.625 21.625 C-29.88452601 18.84412405 -27.21900423 15.97606757 -24.4375 12.25 C-18.16612924 4.41863885 -10.41472183 -1.32420862 0 0 Z " fill="#000001" transform="translate(480.625,192.375)"/>
<path d="M0 0 C0.79903244 -0.0066568 1.59806488 -0.0133136 2.42131042 -0.02017212 C4.09261803 -0.03021062 5.76396501 -0.0349919 7.43530273 -0.03466797 C9.99203137 -0.03908246 12.54708662 -0.07560395 15.10351562 -0.11328125 C16.73567123 -0.11914314 18.36783495 -0.12311673 20 -0.125 C20.7604512 -0.13937103 21.5209024 -0.15374207 22.30439758 -0.16854858 C25.83406274 -0.13801943 27.79347362 0.05285369 30.64746094 2.21020508 C32.49970179 4.79971392 32.67695253 6.23885426 32.60546875 9.3984375 C32.60417969 10.25566406 32.60289062 11.11289062 32.6015625 11.99609375 C32.16796875 14.3359375 32.16796875 14.3359375 31.16796875 16.1015625 C27.93421083 18.09739747 24.42880612 17.91760815 20.73046875 18.0234375 C19.92947754 18.05687256 19.12848633 18.09030762 18.30322266 18.12475586 C11.92615016 18.37081448 5.5490363 18.44854457 -0.83203125 18.3359375 C-1.82203125 20.8109375 -1.82203125 20.8109375 -2.83203125 23.3359375 C-1.52762105 25.55958357 -1.52762105 25.55958357 1.16796875 27.3359375 C4.82187052 27.78119649 8.43516866 27.57230636 12.10546875 27.3984375 C24.18792931 26.87105974 24.18792931 26.87105974 28.16796875 30.3359375 C29.66295788 33.32591575 29.28374321 36.03636525 29.16796875 39.3359375 C28.16796875 42.3359375 28.16796875 42.3359375 25.99145508 43.49755859 C22.89225 44.41780678 20.2220899 44.6545349 16.9921875 44.75 C15.25678711 44.80800781 15.25678711 44.80800781 13.48632812 44.8671875 C12.28814453 44.898125 11.08996094 44.9290625 9.85546875 44.9609375 C8.63794922 44.99960937 7.42042969 45.03828125 6.16601562 45.078125 C3.16681647 45.17221752 0.16762052 45.25785959 -2.83203125 45.3359375 C-3.51696498 48.19371783 -3.51696498 48.19371783 -3.83203125 51.3359375 C-3.17203125 52.3259375 -2.51203125 53.3159375 -1.83203125 54.3359375 C1.18984402 54.79849079 1.18984402 54.79849079 4.75 54.7421875 C5.72678963 54.75844177 5.72678963 54.75844177 6.72331238 54.77502441 C8.80913142 54.80934168 10.89440439 54.82488105 12.98046875 54.8359375 C15.71666813 54.8505509 18.45165598 54.88436145 21.1875 54.9296875 C23.01438354 54.94032227 23.01438354 54.94032227 24.87817383 54.95117188 C28.44032601 55.36779168 30.35252191 56.14247375 33.16796875 58.3359375 C33.76171875 60.9296875 33.76171875 60.9296875 33.66796875 63.8359375 C33.65765625 64.795 33.64734375 65.7540625 33.63671875 66.7421875 C33.0917634 69.75760712 32.54630179 70.48189003 30.16796875 72.3359375 C28.07000732 72.75485229 28.07000732 72.75485229 25.62402344 72.81591797 C24.70586853 72.8453952 23.78771362 72.87487244 22.84173584 72.90524292 C21.35579926 72.92894455 21.35579926 72.92894455 19.83984375 72.953125 C18.30629242 72.99072433 18.30629242 72.99072433 16.74176025 73.02908325 C14.5765275 73.07808396 12.41111503 73.11962304 10.24560547 73.15429688 C6.944058 73.21049343 3.6444788 73.29889699 0.34375 73.390625 C-1.76167918 73.43424516 -3.8671486 73.4759729 -5.97265625 73.515625 C-7.44644745 73.55754471 -7.44644745 73.55754471 -8.95001221 73.60031128 C-14.67154348 73.6652513 -18.88968647 73.35753344 -23.83203125 70.3359375 C-25.64596516 66.80932238 -26.07180876 63.94767154 -26.01489258 60.01416016 C-26.00440384 58.9760318 -25.9939151 57.93790344 -25.98310852 56.86831665 C-25.96032333 55.75677216 -25.93753815 54.64522766 -25.9140625 53.5 C-25.89615158 52.34728607 -25.87824066 51.19457214 -25.85978699 50.00692749 C-25.81863524 47.57092945 -25.77206217 45.1350178 -25.72045898 42.69921875 C-25.64495559 38.98182968 -25.59585517 35.26472017 -25.54882812 31.546875 C-25.50551156 29.17705345 -25.46064084 26.80725969 -25.4140625 24.4375 C-25.40139847 23.33000397 -25.38873444 22.22250793 -25.37568665 21.08145142 C-25.20799693 14.40931135 -24.85553792 8.70831033 -20.20703125 3.5234375 C-13.94664323 0.39324349 -6.88794484 0.02043119 0 0 Z " fill="#000002" transform="translate(481.83203125,285.6640625)"/>
<path d="M0 0 C2.40259491 0.01081364 4.80445766 0.00000638 7.20703125 -0.01269531 C8.74349122 -0.01137521 10.27995074 -0.00881591 11.81640625 -0.00488281 C12.52997284 -0.00893127 13.24353943 -0.01297974 13.97872925 -0.01715088 C20.59177744 0.04524671 20.59177744 0.04524671 23.51171875 2.26074219 C25.14418715 6.71292873 25.77270132 9.06457208 24.76171875 13.69824219 C23.51171875 16.26074219 23.51171875 16.26074219 21.51171875 17.26074219 C19.29662905 17.3918224 17.07791807 17.46358068 14.859375 17.50683594 C13.5123632 17.53977059 12.16535815 17.5729823 10.81835938 17.60644531 C8.69413843 17.65387961 6.56994561 17.69832109 4.44555664 17.73754883 C2.3957083 17.77727549 0.34641645 17.82881227 -1.703125 17.88183594 C-2.931521 17.90689209 -4.15991699 17.93194824 -5.42553711 17.95776367 C-8.65948826 18.03536642 -8.65948826 18.03536642 -11.48828125 20.26074219 C-11.10923917 23.55150215 -11.10923917 23.55150215 -9.48828125 26.26074219 C-7.60974372 26.39456046 -5.72656683 26.46427588 -3.84375 26.50683594 C-2.11608398 26.55614258 -2.11608398 26.55614258 -0.35351562 26.60644531 C2.08650107 26.66734854 4.52660981 26.72467545 6.96679688 26.77832031 C8.70026367 26.82956055 8.70026367 26.82956055 10.46875 26.88183594 C12.0616687 26.91942017 12.0616687 26.91942017 13.68676758 26.95776367 C16.48634349 27.25802067 18.16907021 27.7294152 20.51171875 29.26074219 C21.6815522 31.60040908 21.67784285 33.09465745 21.69921875 35.69824219 C21.71339844 36.48070312 21.72757813 37.26316406 21.7421875 38.06933594 C21.51171875 40.26074219 21.51171875 40.26074219 19.51171875 43.26074219 C16.26613354 44.50510237 12.91384861 44.44371762 9.46875 44.54199219 C7.7352832 44.59806641 7.7352832 44.59806641 5.96679688 44.65527344 C3.5267025 44.72592496 1.08659819 44.79623423 -1.35351562 44.86621094 C-3.08118164 44.92228516 -3.08118164 44.92228516 -4.84375 44.97949219 C-5.90231201 45.00978516 -6.96087402 45.04007812 -8.05151367 45.07128906 C-10.4352319 44.99096991 -10.4352319 44.99096991 -11.48828125 46.26074219 C-11.73833511 49.21891325 -11.73833511 49.21891325 -11.48828125 52.26074219 C-8.63335507 55.11566837 -6.64431034 54.51533284 -2.65234375 54.53417969 C-1.26431491 54.55447233 0.12370587 54.57532318 1.51171875 54.59667969 C3.69961346 54.61926567 5.88718945 54.63574345 8.07519531 54.64160156 C10.18743509 54.65113763 12.29823896 54.68492804 14.41015625 54.72167969 C15.67520996 54.72989746 16.94026367 54.73811523 18.24365234 54.74658203 C22.04309188 55.34434235 23.225603 56.22876403 25.51171875 59.26074219 C26.40313531 63.24755012 26.0576773 67.04750097 24.38671875 70.76074219 C19.96482975 74.29825339 13.47796097 73.37093135 8.078125 73.24511719 C7.28196274 73.22862122 6.48580048 73.21212524 5.66551208 73.19512939 C3.98876809 73.15779426 2.3120924 73.11727 0.63549805 73.07373047 C-1.91414821 73.01102827 -4.46359361 72.96952793 -7.01367188 72.92871094 C-8.64977126 72.88965151 -10.28584107 72.84932854 -11.921875 72.80761719 C-12.67625351 72.79809021 -13.43063202 72.78856323 -14.20787048 72.77874756 C-20.40247516 72.58091622 -25.38810076 71.41619058 -29.86328125 66.82324219 C-32.22748908 63.0950683 -32.61225935 59.98290128 -32.64941406 55.61914062 C-32.66382538 54.2468631 -32.66382538 54.2468631 -32.67852783 52.84686279 C-32.68277771 51.86453674 -32.68702759 50.88221069 -32.69140625 49.87011719 C-32.69710632 48.85153625 -32.7028064 47.83295532 -32.7086792 46.7835083 C-32.71812009 44.62830643 -32.72465956 42.47309019 -32.72851562 40.31787109 C-32.73820416 37.03684987 -32.76922965 33.75645977 -32.80078125 30.47558594 C-32.8073135 28.37793339 -32.8125631 26.28027638 -32.81640625 24.18261719 C-32.82875305 23.20838806 -32.84109985 22.23415894 -32.8538208 21.23040771 C-32.83246212 14.62971621 -32.49360555 8.26226325 -27.55908203 3.33398438 C-19.30404996 -0.94438405 -9.05017663 -0.04861665 0 0 Z " fill="#000002" transform="translate(171.48828125,285.7392578125)"/>
<path d="M0 0 C0.76183594 -0.01417969 1.52367187 -0.02835938 2.30859375 -0.04296875 C4.84574217 0.21646237 6.41445547 0.82566785 8.5625 2.1875 C11.1467197 7.09751742 10.58412792 12.00750915 10.2421875 17.3828125 C10.34757732 20.27445726 10.34757732 20.27445726 12.1953125 22.53125 C15.19002724 24.62656196 16.93588259 24.66223198 20.5625 24.5625 C21.59375 24.54960937 22.625 24.53671875 23.6875 24.5234375 C26.49884014 24.19493852 28.20753994 23.72476559 30.5625 22.1875 C32.35219519 18.60810962 31.51448354 14.38308263 31.40234375 10.44921875 C31.56489328 7.13875881 31.93736848 5.06586774 33.5625 2.1875 C36.4681106 0.11474761 39.04657157 -0.10892106 42.5625 -0.125 C43.8309375 -0.15013672 43.8309375 -0.15013672 45.125 -0.17578125 C48.1343755 0.27273145 49.44026572 1.01315729 51.5625 3.1875 C52.57706844 6.92619443 52.67152254 10.4479907 52.63183594 14.30712891 C52.62142273 15.51833405 52.61100952 16.72953918 52.60028076 17.97744751 C52.58265686 19.27653046 52.56503296 20.5756134 52.546875 21.9140625 C52.53016849 23.26736396 52.51350657 24.62066597 52.49688721 25.97396851 C52.46050973 28.8033567 52.41929546 31.63263178 52.37548828 34.46191406 C52.32034753 38.08785195 52.28389667 41.7137242 52.25185776 45.33992958 C52.22401307 48.13161616 52.18296372 50.92299576 52.13825226 53.71445847 C52.10973695 55.70134279 52.09503226 57.68840973 52.08050537 59.67544556 C52.05748352 60.88034637 52.03446167 62.08524719 52.01074219 63.32666016 C51.99662292 64.38857574 51.98250366 65.45049133 51.96795654 66.54458618 C51.5625 69.1875 51.5625 69.1875 50.20806885 71.02670288 C47.72104638 72.78106796 45.63046121 72.62128497 42.625 72.625 C41.58472656 72.64433594 40.54445313 72.66367187 39.47265625 72.68359375 C36.5625 72.1875 36.5625 72.1875 34.23046875 70.5859375 C32.03609165 67.43055685 31.96152504 65.1958365 31.8125 61.375 C31.75578125 60.19292969 31.6990625 59.01085937 31.640625 57.79296875 C31.58717165 55.3260968 31.58575784 52.85769871 31.62890625 50.390625 C31.80609098 47.19634257 31.80609098 47.19634257 30.25 44.75 C25.89679854 42.21906892 21.46926992 42.56961046 16.5625 43.1875 C13.44312031 44.56002707 12.0727285 45.167043 10.5625 48.1875 C10.5365804 51.73107976 10.59031916 55.26094824 10.68945312 58.80273438 C10.75182187 63.02546547 10.70919523 66.41130014 8.5625 70.1875 C5.11574591 72.48533606 3.62921888 72.48504883 -0.4375 72.5 C-1.489375 72.51675781 -2.54125 72.53351563 -3.625 72.55078125 C-6.4375 72.1875 -6.4375 72.1875 -8.0900116 71.05603027 C-10.04943729 68.33894105 -9.8116535 66.25568209 -9.80981445 62.92773438 C-9.81604324 61.63629517 -9.82227203 60.34485596 -9.82868958 59.01428223 C-9.8200015 57.60326757 -9.81068351 56.19225666 -9.80078125 54.78125 C-9.80026259 53.33540853 -9.80078051 51.88956636 -9.80229187 50.44372559 C-9.80220216 47.41403674 -9.79177646 44.38461409 -9.77368164 41.35498047 C-9.75099433 37.47097349 -9.75045047 33.58735548 -9.75719929 29.70330048 C-9.76054037 26.71788067 -9.75390658 23.73254959 -9.74407005 20.74714661 C-9.74022016 19.31501225 -9.73906897 17.88286802 -9.7406559 16.45072937 C-9.74102663 14.44955228 -9.72692833 12.44838824 -9.7121582 10.44726562 C-9.70755081 9.30825806 -9.70294342 8.16925049 -9.69819641 6.99572754 C-9.4375 4.1875 -9.4375 4.1875 -7.4375 1.1875 C-4.66697819 0.26399273 -2.87061242 0.02420415 0 0 Z " fill="#000001" transform="translate(222.4375,192.8125)"/>
<path d="M0 0 C2.29756103 3.06341471 2.5653828 6.28044525 2.5 10 C1.78628332 12.98463339 1.35138537 14.41331449 -1.18359375 16.16015625 C-4.28857959 17.28590997 -6.59958434 16.92601867 -9.875 16.5625 C-21.9525714 15.30022141 -21.9525714 15.30022141 -33.5 18 C-33.54241723 20.33294775 -33.54092937 22.66702567 -33.5 25 C-31.68704413 26.81295587 -28.85837914 26.15185735 -26.41796875 26.17578125 C-25.17595703 26.19962891 -23.93394531 26.22347656 -22.65429688 26.24804688 C-20.02164641 26.29082258 -17.38878423 26.32217746 -14.75585938 26.34179688 C-13.50998047 26.36951172 -12.26410156 26.39722656 -10.98046875 26.42578125 C-9.26186646 26.44765503 -9.26186646 26.44765503 -7.50854492 26.4699707 C-3.90307872 27.10516239 -2.71906766 28.14586583 -0.5 31 C0.20882303 33.90784881 -0.16028211 35.942539 -0.5 39 C-1.64648438 40.71850586 -1.64648438 40.71850586 -3.5 42 C-6.27148438 42.40063477 -6.27148438 42.40063477 -9.59375 42.44140625 C-10.78871094 42.46783203 -11.98367188 42.49425781 -13.21484375 42.52148438 C-14.46394531 42.53501953 -15.71304688 42.54855469 -17 42.5625 C-19.46888432 42.59689622 -21.9376722 42.63947824 -24.40625 42.69140625 C-25.50259766 42.70373291 -26.59894531 42.71605957 -27.72851562 42.72875977 C-30.71189587 42.80108386 -30.71189587 42.80108386 -33.5 45 C-33.91666667 48 -33.91666667 48 -33.5 51 C-30.64819314 53.85180686 -28.65274311 53.26965869 -24.6640625 53.30859375 C-23.27603754 53.33375779 -21.88801681 53.35915576 -20.5 53.38476562 C-18.31218598 53.41348805 -16.12444548 53.43750476 -13.93652344 53.45629883 C-11.82447838 53.47799139 -9.71330491 53.51743594 -7.6015625 53.55859375 C-6.33650879 53.57204834 -5.07145508 53.58550293 -3.76806641 53.59936523 C-0.30174884 54.02430376 1.12639501 54.4735029 3.5 57 C4.62934461 62.00138329 5.07637389 65.38964673 2.5 70 C-0.01575387 72.51575387 -0.8641879 72.26069279 -4.34521484 72.29052734 C-5.35321136 72.30328705 -6.36120789 72.31604675 -7.39974976 72.32919312 C-9.03878769 72.33253159 -9.03878769 72.33253159 -10.7109375 72.3359375 C-11.8306192 72.3425943 -12.9503009 72.3492511 -14.10391235 72.35610962 C-16.47615919 72.36624981 -18.84843464 72.37092622 -21.22070312 72.37060547 C-24.85334274 72.37497396 -28.48476341 72.41126805 -32.1171875 72.44921875 C-34.41926667 72.45508747 -36.72135162 72.45905649 -39.0234375 72.4609375 C-40.11208099 72.47530853 -41.20072449 72.48967957 -42.32235718 72.50448608 C-43.33665802 72.49833282 -44.35095886 72.49217957 -45.39599609 72.48583984 C-46.28709076 72.48868988 -47.17818542 72.49153992 -48.09628296 72.49447632 C-51.35943875 71.82320211 -52.52486378 70.65169619 -54.5 68 C-55.00120544 65.52949524 -55.00120544 65.52949524 -55.00170898 62.73168945 C-55.01108994 61.6799202 -55.02047089 60.62815094 -55.03013611 59.54450989 C-55.01890213 58.41220444 -55.00766815 57.27989899 -54.99609375 56.11328125 C-54.99754898 54.94169968 -54.99900421 53.7701181 -55.00050354 52.56303406 C-54.99884326 50.08244341 -54.98726777 47.6018426 -54.96655273 45.12133789 C-54.93774113 41.34411219 -54.94591418 37.56830265 -54.95898438 33.79101562 C-54.95274235 31.3775974 -54.94434781 28.96418359 -54.93359375 26.55078125 C-54.93652939 25.42859695 -54.93946503 24.30641266 -54.94248962 23.15022278 C-54.85915458 16.13654804 -54.70650492 8.3513573 -49.59765625 3.01171875 C-41.77889538 -0.75934096 -32.70162395 -0.18002628 -24.22631836 -0.0144043 C-16.2965774 0.1252297 -7.56307238 -3.02522895 0 0 Z " fill="#000002" transform="translate(339.5,193)"/>
<path d="M0 0 C4.26127545 3.18238565 6.68660551 5.68511469 8.5625 10.6875 C8.50139667 14.35369982 8.37553758 16.6270162 6.125 19.5625 C3.12260119 21.72422714 0.56015061 22.13918319 -3.1484375 22.10546875 C-8.61824976 21.10671463 -13.04536301 16.94705251 -17.0625 13.3125 C-20.41988705 11.01534044 -22.44098696 11.13625682 -26.4375 11.6875 C-30.76066721 13.43099953 -33.93423562 15.73049852 -36.4375 19.6875 C-38.74654147 26.7385242 -39.04493399 33.69761828 -36.4375 40.6875 C-34.29207381 44.32343281 -31.57621201 47.47023176 -27.4375 48.6875 C-22.3945586 49.14594922 -19.37444329 48.93547821 -15.4375 45.6875 C-13.54000022 43.39313753 -11.74338693 41.05343819 -9.98828125 38.6484375 C-8.4375 36.6875 -8.4375 36.6875 -6.4375 35.6875 C-2.17494836 35.25203304 1.50429539 35.25971516 5.5 36.875 C7.97082834 39.046334 8.64837031 40.54289385 9.5625 43.6875 C8.27599137 50.7922729 3.9825985 57.0593324 -1.4375 61.6875 C-6.42040361 64.86202813 -11.47906986 67.31509812 -17.4375 67.6875 C-18.15164062 67.73777344 -18.86578125 67.78804688 -19.6015625 67.83984375 C-30.26178987 68.26286865 -40.31148185 65.8119016 -48.4375 58.6875 C-56.85362065 49.93247516 -59.8727484 38.64700746 -59.7109375 26.75390625 C-58.85181838 17.11949894 -55.52456795 8.38301724 -48.4375 1.6875 C-33.15833252 -10.03627946 -16.114545 -10.44504815 0 0 Z " fill="#000001" transform="translate(195.4375,198.3125)"/>
<path d="M0 0 C5.05099033 5.403385 10.6875 13.22378553 10.6875 20.875 C4.74449784 22.56909717 -1.09916715 22.55025409 -7 20.75 C-9.7439451 19.19682353 -11.54032973 17.84583777 -13.8125 15.75 C-17.17455231 12.72716821 -19.68041933 11.78922073 -24.3125 11.875 C-29.47066613 13.96282915 -33.04798547 18.23543644 -35.4296875 23.20703125 C-37.23177952 28.6531766 -37.47289389 34.90688505 -35.3671875 40.29296875 C-32.39708819 45.27115406 -29.01553669 49.01232872 -23.375 50.8125 C-19.30816447 50.89549664 -17.67629082 50.20905893 -14.3125 47.875 C-12.39486321 45.63365957 -10.64012909 43.33368073 -8.92578125 40.93359375 C-6.92011405 38.37430413 -5.27173003 37.01481997 -2.0078125 36.5390625 C2.14759131 36.47591047 5.01885663 36.55405118 8.8125 38.375 C10.91391813 41.17689083 11.47182243 43.15464954 11.23046875 46.6640625 C9.36829628 54.24672163 3.00251135 60.63570542 -3.3125 64.875 C-12.07299933 69.5676288 -21.80157693 70.47017615 -31.4375 68.109375 C-41.01030801 64.83172878 -48.69060222 59.51878236 -53.609375 50.49609375 C-58.42700682 39.90079479 -59.28618074 27.11215233 -55.28125 16.04296875 C-50.89683175 6.231065 -44.36377377 -0.27285438 -34.390625 -4.3984375 C-22.62935038 -8.51046208 -10.36768344 -6.65096673 0 0 Z " fill="#000001" transform="translate(407.3125,197.125)"/>
<path d="M0 0 C0.94488281 -0.04898437 1.88976562 -0.09796875 2.86328125 -0.1484375 C6.82068013 0.58502232 8.15199005 2.3058536 10.6875 5.375 C11.31568909 8.34107971 11.31568909 8.34107971 11.31860352 11.66235352 C11.33113663 12.91037247 11.34366974 14.15839142 11.35658264 15.44422913 C11.34431522 16.7974655 11.33089534 18.15069184 11.31640625 19.50390625 C11.31723546 20.899655 11.31969681 22.29540364 11.32371521 23.69114685 C11.32656862 26.61072317 11.31191684 29.52953036 11.28442383 32.44897461 C11.25030838 36.18741677 11.2563731 39.9244871 11.2750864 43.66299534 C11.28566369 46.54301858 11.27671286 49.42272355 11.26170158 52.30271721 C11.25652667 53.6809895 11.25699323 55.05929512 11.26324654 56.43756294 C11.26870763 58.36409949 11.24545345 60.2906526 11.22094727 62.21704102 C11.21474869 63.31226578 11.20855011 64.40749054 11.2021637 65.53590393 C10.56800741 69.03417015 9.45134411 70.20784673 6.6875 72.375 C2.13533824 73.72954569 -2.00063427 73.93722817 -6.375 72.0625 C-8.3125 70.375 -8.3125 70.375 -9.3125 68.375 C-9.41413216 66.3947559 -9.45090931 64.41106124 -9.45776367 62.42822266 C-9.46414352 61.17997711 -9.47052338 59.93173157 -9.47709656 58.6456604 C-9.47862534 57.27679483 -9.47973924 55.90792873 -9.48046875 54.5390625 C-9.48368133 53.13902756 -9.4870454 51.73899297 -9.49055481 50.33895874 C-9.49654766 47.40174583 -9.49839459 44.46456235 -9.49780273 41.52734375 C-9.49770118 37.76563161 -9.51134514 34.00410853 -9.52857494 30.24244118 C-9.5397008 27.34965144 -9.54172175 24.4569073 -9.54119301 21.56409836 C-9.54237256 20.17743657 -9.54679296 18.79077358 -9.55452538 17.40413284 C-9.56433504 15.46296879 -9.56018044 13.5217494 -9.55541992 11.58056641 C-9.55684494 10.47629303 -9.55826996 9.37201965 -9.55973816 8.23428345 C-9.31346605 5.38617227 -8.88148631 3.74251196 -7.3125 1.375 C-4.7764472 0.1069736 -2.83238836 0.09965101 0 0 Z " fill="#000103" transform="translate(363.3125,285.625)"/>
</svg>
