<?xml version="1.0" encoding="utf-8"?>
<svg xmlns="http://www.w3.org/2000/svg" viewBox="19.3566 4.0957 472.8697 504.4347" width="472.87px" height="504.435px" preserveAspectRatio="none"><path d="M0 0 C2.94808319 1.83517043 5.78271042 3.79777727 8.59765625 5.828125 C9.25443359 6.29863281 9.91121094 6.76914063 10.58789062 7.25390625 C14.3956128 9.98605931 18.19022329 12.73585994 21.98046875 15.4921875 C26.17173845 18.53133808 30.39647507 21.51650065 34.66015625 24.453125 C35.30509033 24.89736816 35.95002441 25.34161133 36.61450195 25.79931641 C40.77397698 28.64056418 44.99770515 31.36245009 49.25756836 34.05029297 C78.58442692 52.62321585 91.698682 80.39843118 99.28125 113.34765625 C101.77413508 125.03248848 103.37850166 136.94619345 104.59765625 148.828125 C104.68468307 149.67039139 104.7717099 150.51265778 104.8613739 151.38044739 C105.83416465 162.09830262 105.76173937 172.81310353 105.765625 183.56640625 C105.7688514 185.69402589 105.77221641 187.82164531 105.77571106 189.94926453 C105.78167977 194.41157542 105.78355392 198.87386704 105.78295898 203.33618164 C105.78287864 207.82417919 105.78967543 212.31207268 105.8034668 216.80004883 C105.87142182 239.25819903 105.83221549 261.6799592 104.671875 284.11328125 C104.6302593 284.91818811 104.58864361 285.72309498 104.54576683 286.55239296 C100.00021762 371.95709036 100.00021762 371.95709036 74.59765625 394.828125 C66.37553163 401.70481105 56.22733598 405.13109682 45.59765625 405.828125 C44.93894531 405.8796875 44.28023438 405.93125 43.6015625 405.984375 C29.98057836 406.58419815 17.09175657 401.9846956 6.62109375 393.3828125 C-16.09393069 371.91930456 -22.42762273 338.89095728 -23.88671875 308.9140625 C-23.9258992 308.12388229 -23.96507965 307.33370209 -24.00544739 306.51957703 C-24.19731043 302.55267902 -24.36424498 298.58688243 -24.49291992 294.61743164 C-24.86842477 284.80666457 -25.61400508 274.67111503 -31.52734375 266.390625 C-35.21928049 262.87533453 -35.21928049 262.87533453 -44.40234375 258.828125 C-44.40234375 313.938125 -44.40234375 369.048125 -44.40234375 425.828125 C-34.83234375 425.828125 -25.26234375 425.828125 -15.40234375 425.828125 C-6.24735437 429.26124602 -6.24735437 429.26124602 -3.15234375 431.953125 C-2.21648437 432.73042969 -2.21648437 432.73042969 -1.26171875 433.5234375 C4.10850408 440.17980614 5.21826212 447.22476282 5.3125 455.55859375 C5.33615128 456.55264725 5.35980255 457.54670074 5.38417053 458.57087708 C5.42916649 460.65734286 5.4647947 462.74402993 5.49145508 464.83081055 C5.53518704 468.01786885 5.61607919 471.20247812 5.70117188 474.38867188 C5.74049347 476.42443764 5.77767682 478.46024607 5.8125 480.49609375 C5.83730942 481.4430864 5.86211884 482.39007904 5.88768005 483.36576843 C5.93100973 488.6306663 5.58203113 492.2888061 2.59765625 496.828125 C-1.93506909 501.02089594 -5.1611601 501.95211257 -11.23363113 501.96234608 C-12.45795923 501.96680392 -13.68228734 501.97126176 -14.94371629 501.97585469 C-16.30958447 501.9757654 -17.67545265 501.97557554 -19.0413208 501.97529602 C-20.48672705 501.97859467 -21.93213238 501.98232024 -23.37753654 501.9864375 C-27.359198 501.99646538 -31.34084438 502.00017555 -35.32251668 502.00282681 C-39.61303299 502.00672749 -43.90353734 502.01630594 -48.19404602 502.02503967 C-58.55999049 502.04481003 -68.92593594 502.05487069 -79.29189456 502.06376746 C-84.17136043 502.06814914 -89.05082521 502.07351623 -93.93029022 502.07875633 C-110.14692586 502.09576864 -126.36356082 502.11026359 -142.58020401 502.11750507 C-146.78930919 502.11941502 -150.99841437 502.12133534 -155.20751953 502.12329102 C-156.25369264 502.12377476 -157.29986575 502.1242585 -158.37774107 502.1247569 C-175.33132078 502.13306014 -192.28483 502.15840201 -209.23837891 502.19087169 C-226.63731005 502.22392322 -244.03620533 502.24195208 -261.43516803 502.24514931 C-271.20687655 502.2473161 -280.97848225 502.25608948 -290.75016022 502.28161049 C-299.07079787 502.30329139 -307.39130773 502.31138076 -315.71197042 502.30164371 C-319.95791707 502.29709151 -324.20359991 502.29903846 -328.44951057 502.31840515 C-332.33702981 502.33598415 -336.22409177 502.33508229 -340.11161551 502.31950786 C-341.51743396 502.31712375 -342.92328365 502.32149693 -344.32905427 502.33333651 C-357.39972938 502.43659465 -357.39972938 502.43659465 -363.40234375 497.828125 C-367.47917478 493.37313347 -366.86993391 487.90815328 -366.87109375 482.19140625 C-366.87870728 481.15678757 -366.8863208 480.12216888 -366.89416504 479.05619812 C-366.90495772 476.86830045 -366.90782254 474.6803513 -366.90332031 472.49243164 C-366.90235207 469.16919241 -366.94390026 465.8482943 -366.98828125 462.52539062 C-366.99349187 460.39323394 -366.99617638 458.2610693 -366.99609375 456.12890625 C-367.01248901 455.14626297 -367.02888428 454.16361969 -367.04577637 453.15119934 C-366.96920663 445.38264413 -364.9571652 438.77947332 -359.67614746 432.90937805 C-351.49837439 425.0798447 -342.10968159 425.43612638 -331.40234375 425.640625 C-330.04168149 425.65570024 -328.68100306 425.66938362 -327.3203125 425.68164062 C-324.01390532 425.71681517 -320.70833691 425.76604212 -317.40234375 425.828125 C-317.40386263 425.11477084 -317.40538151 424.40141668 -317.40694642 423.66644573 C-317.49654552 381.34538488 -317.56513379 339.02433507 -317.60660507 296.70319837 C-317.61160763 291.61658521 -317.61678494 286.52997225 -317.62207031 281.44335938 C-317.62311955 280.43074732 -317.6241688 279.41813526 -317.62524983 278.37483799 C-317.6426339 261.99943905 -317.67416054 245.62409654 -317.71095493 229.24873102 C-317.74842003 212.43407276 -317.77059136 195.61944396 -317.77869773 178.80474567 C-317.78417396 168.43720709 -317.8014422 158.06982803 -317.83400962 147.70233858 C-317.85522631 140.58368084 -317.86152767 133.46510504 -317.85634926 126.34641802 C-317.85379857 122.24518696 -317.85758456 118.14423377 -317.87916565 114.04305267 C-317.89883652 110.27707544 -317.89948314 106.51155917 -317.88593933 102.74555933 C-317.88348688 100.76110607 -317.90055386 98.77665706 -317.91866899 96.79228497 C-317.80063817 78.76781093 -312.25011896 60.94804004 -299.5234375 47.75 C-283.09887812 32.8680788 -264.8568514 30.67424473 -243.55786133 30.68286133 C-242.07187822 30.67986422 -240.58589588 30.67646043 -239.09991455 30.67268372 C-235.08516851 30.6638945 -231.07044383 30.66150772 -227.0556891 30.66086793 C-224.54037079 30.6601544 -222.02505781 30.65801435 -219.50974083 30.65537071 C-210.71441685 30.64613326 -201.91910797 30.64203371 -193.1237793 30.64282227 C-184.9583072 30.64342225 -176.79290134 30.63288196 -168.627446 30.6170786 C-161.59015814 30.60394984 -154.55289179 30.59864062 -147.5155918 30.59927768 C-143.32452192 30.59953115 -139.13351094 30.59676415 -134.94245338 30.58609962 C-130.9951429 30.57632861 -127.04794652 30.57640027 -123.10063171 30.58361626 C-121.66326414 30.5846511 -120.22588912 30.58236586 -118.78853416 30.5762558 C-95.90388541 30.48538403 -77.08922417 34.6966585 -60.15234375 50.578125 C-49.8259452 61.29297742 -44.26895538 76.0992613 -44.28208923 90.94052124 C-44.28002724 92.74510803 -44.28002724 92.74510803 -44.27792358 94.58615112 C-44.28151886 95.89238434 -44.28511414 97.19861755 -44.28881836 98.54443359 C-44.28910066 99.94431557 -44.28894166 101.3441977 -44.28837585 102.74407959 C-44.28808956 106.53287271 -44.29395919 110.32163401 -44.30094981 114.11041975 C-44.30721127 118.07423204 -44.30778936 122.0380451 -44.30897522 126.00186157 C-44.31208031 133.50277064 -44.3202826 141.0036651 -44.33032471 148.50456774 C-44.34151139 157.0462594 -44.34700274 165.58795176 -44.35202014 174.12964892 C-44.36246591 191.69581606 -44.38004941 209.26196898 -44.40234375 226.828125 C-43.65178711 226.95613998 -42.90123047 227.08415497 -42.12792969 227.21604919 C-41.14083008 227.38894974 -40.15373047 227.56185028 -39.13671875 227.73999023 C-38.15928711 227.90925522 -37.18185547 228.0785202 -36.17480469 228.25291443 C-23.67486002 230.84631447 -10.86631282 240.22634635 -3.73828125 250.609375 C4.39646139 264.11970781 7.4907596 276.99104245 7.88793945 292.6081543 C8.8018429 333.71062288 8.8018429 333.71062288 27.59765625 368.828125 C32.84239779 373.01710688 38.26122437 373.39640958 44.82421875 373.1484375 C49.63412732 372.59292693 52.42603754 371.16450259 55.59765625 367.546875 C77.13242368 338.27305052 72.42612941 283.7816909 73.1328125 249.06640625 C73.17596639 247.05331376 73.21938273 245.04022688 73.26304626 243.02714539 C73.37577891 237.79793467 73.48501189 232.56865687 73.59344482 227.33935547 C73.70531039 221.97553963 73.82058412 216.61179707 73.93554688 211.24804688 C74.15953239 200.77480747 74.37981033 190.30149379 74.59765625 179.828125 C73.83188263 179.52891647 73.06610901 179.22970795 72.27713013 178.9214325 C67.39988719 176.93136784 62.8837475 174.21649857 58.2890625 171.65307617 C56.50127098 170.65657464 54.70986325 169.66683444 52.91796875 168.67773438 C27.92821757 154.81980896 27.92821757 154.81980896 25.59765625 147.828125 C25.50600969 144.89139992 25.47170227 141.97883055 25.48413086 139.04223633 C25.48398483 138.14446976 25.48383881 137.24670319 25.48368835 136.32173157 C25.48438561 133.35118197 25.49216928 130.38069491 25.5 127.41015625 C25.50186484 125.35178156 25.50328843 123.29340642 25.50428772 121.23503113 C25.50810766 115.81481706 25.51793352 110.39462976 25.5289917 104.97442627 C25.53921704 99.44454307 25.54378775 93.91465555 25.54882812 88.38476562 C25.55955622 77.53254032 25.57662641 66.68033489 25.59765625 55.828125 C24.83880127 55.54380615 24.07994629 55.2594873 23.2980957 54.96655273 C19.72828782 53.46162423 16.84621524 51.21970917 13.78515625 48.890625 C8.34763855 44.8216237 2.84118031 40.89318862 -2.77734375 37.078125 C-22.48378106 23.62485078 -22.48378106 23.62485078 -24.33984375 15.953125 C-24.66131666 11.56790478 -23.66449317 8.64550214 -21.40234375 4.828125 C-15.14587139 -1.72346398 -8.63380485 -4.21161212 0 0 Z M-266.40234375 94.828125 C-266.40234375 128.818125 -266.40234375 162.808125 -266.40234375 197.828125 C-209.97234375 197.828125 -153.54234375 197.828125 -95.40234375 197.828125 C-95.40234375 163.838125 -95.40234375 129.848125 -95.40234375 94.828125 C-151.83234375 94.828125 -208.26234375 94.828125 -266.40234375 94.828125 Z " transform="matrix(1, 0, 0, 1, 386.40234375000006, 6.171875000000014)" style="fill: rgb(255, 255, 255);" id="object-0"/></svg>