<?xml version="1.0" encoding="utf-8"?>
<svg version="1.1" xmlns="http://www.w3.org/2000/svg" width="512" height="512" xmlns:bx="https://boxy-svg.com">
  <defs>
    <bx:export>
      <bx:file format="svg" href="#object-0"/>
      <bx:file format="svg" href="#object-1" path="Untitled 2.svg"/>
      <bx:file format="svg" href="#object-2" path="Untitled 3.svg"/>
      <bx:file format="svg" href="#object-3" path="Untitled 4.svg"/>
      <bx:file format="svg" href="#object-4" path="Untitled 5.svg"/>
      <bx:file format="svg" href="#object-5" path="Untitled 6.svg"/>
    </bx:export>
  </defs>
  <path d="M0 0 C0.74765625 0.22026855 1.4953125 0.44053711 2.265625 0.66748047 C32.30820948 9.70782986 60.55313718 24.36601369 85 44 C85.87527344 44.6703125 86.75054687 45.340625 87.65234375 46.03125 C112.82517255 65.71526651 133.57483983 92.11302207 143.375 122.75 C143.73295654 123.8649585 143.73295654 123.8649585 144.09814453 125.00244141 C147.37064184 135.81848277 148.36671086 146.48265944 148.3125 157.75 C148.30686035 158.98210205 148.3012207 160.2142041 148.29541016 161.48364258 C147.76910041 201.05327662 126.23663267 233.22131296 99.05957031 260.2409668 C92.75577633 266.37812422 86.15589743 271.88784479 79 277 C78.33838867 277.47356934 77.67677734 277.94713867 76.99511719 278.43505859 C55.05322464 293.95381213 31.42277599 305.50226102 6 314 C4.92492187 314.36996094 3.84984375 314.73992187 2.7421875 315.12109375 C-34.14238576 327.24300593 -76.92982842 329.07247309 -112.14624023 311.29199219 C-140.62194538 296.16176347 -156.46805429 268.50399527 -165.72265625 238.67041016 C-173.38802461 212.79979193 -175.22641323 185.4201924 -175.1875 158.5625 C-175.18689575 157.78208344 -175.1862915 157.00166687 -175.18566895 156.19760132 C-175.08085735 105.93724466 -167.41762937 55.14151833 -130.95703125 17.9140625 C-96.7710771 -14.54014538 -42.11489677 -12.46962537 0 0 Z M-110 50 C-110.66386719 50.64582031 -111.32773438 51.29164063 -112.01171875 51.95703125 C-137.69587321 78.44922652 -138.17473121 126.93908906 -138.05810547 161.26904297 C-137.95585877 167.83431198 -137.64112786 174.38422018 -137.25 180.9375 C-137.20743073 181.65244629 -137.16486145 182.36739258 -137.1210022 183.10400391 C-135.57807419 208.13581144 -131.38085214 231.95745483 -119 254 C-118.51789063 254.86238281 -118.03578125 255.72476563 -117.5390625 256.61328125 C-108.38536406 271.50788304 -94.58132558 280.2853527 -78 285 C-38.31963241 293.50923438 8.08761778 278.53032316 41.546875 257.28125 C47.50896786 253.3832188 53.31248802 249.28793967 59 245 C59.92167969 244.30519531 60.84335937 243.61039063 61.79296875 242.89453125 C83.63850706 225.6956067 101.52776139 204.09471397 109 177 C109.24492187 176.16597656 109.48984375 175.33195313 109.7421875 174.47265625 C114.78758958 154.25649036 109.22920847 132.10541702 99 114.4765625 C84.60855693 90.71036564 63.53307933 72.30578485 40 58 C39.40944824 57.63551758 38.81889648 57.27103516 38.21044922 56.89550781 C11.96143381 40.83278329 -19.14543216 30.35579326 -50 29 C-51.06089844 28.94714844 -52.12179687 28.89429688 -53.21484375 28.83984375 C-75.49874364 28.2527536 -94.50643179 33.69724389 -110 50 Z " transform="translate(364,98)" style="fill: rgb(255, 255, 255);" id="object-0"/>
  <path d="M0 0 C1.1634343 -0.00571014 2.32686859 -0.01142029 3.52555847 -0.01730347 C4.79319534 -0.01842133 6.06083221 -0.01953918 7.36688232 -0.02069092 C8.72245925 -0.02532297 10.07803488 -0.03034815 11.43360901 -0.03573608 C15.10941935 -0.04882521 18.78521146 -0.05529827 22.46104145 -0.05974674 C24.76054693 -0.06268325 27.06004749 -0.06678915 29.35955048 -0.07125092 C36.56288194 -0.08491697 43.76620208 -0.09458786 50.9695456 -0.09845281 C59.26853156 -0.10293081 67.5673526 -0.12047044 75.86628842 -0.1494534 C82.29195783 -0.17111079 88.71758097 -0.18115926 95.14328647 -0.18249393 C98.97603377 -0.1835391 102.80862585 -0.18938522 106.64133453 -0.20731354 C110.24964146 -0.22386454 113.85767764 -0.22591597 117.46600914 -0.21717453 C119.40967665 -0.2160444 121.35333547 -0.22970753 123.29695129 -0.243927 C132.26378051 -0.20141652 140.55115026 0.50928014 147.18231201 7.14044189 C150.82034451 11.55805279 151.30131256 16.57291647 151.18231201 22.14044189 C150.24898968 27.77016274 147.62430873 31.2250287 143.38934326 34.91387939 C136.0723843 38.98029553 127.76904201 38.43108966 119.65716553 38.4151001 C118.30114462 38.41945404 116.94512618 38.42463946 115.58911133 38.43058777 C111.92584645 38.44391486 108.26268514 38.44456356 104.59940076 38.44202447 C101.53294426 38.44095059 98.46650836 38.44584868 95.4000563 38.45062989 C88.16201306 38.46170306 80.92402172 38.46217467 73.68597412 38.45611572 C66.23667232 38.45007554 58.78755938 38.46239305 51.3382898 38.48368579 C44.92528987 38.50133765 38.51234986 38.50729756 32.09932655 38.50404805 C28.27669662 38.50224095 24.45420147 38.50481393 20.6315937 38.51876259 C17.03554159 38.53139512 13.43978268 38.52934608 9.84373474 38.5163517 C7.90726446 38.51288249 5.97078499 38.52412344 4.03434753 38.53591919 C-4.05585916 38.48743294 -10.76747764 37.69383538 -17.69268799 33.32794189 C-21.87611944 29.02146834 -23.04942211 25.24414067 -23.38018799 19.32794189 C-23.21303892 12.92852048 -21.24591689 8.7300641 -16.81768799 4.14044189 C-11.4812614 0.65542861 -6.26888333 0.01848633 0 0 Z " transform="translate(22.81768798828125,372.85955810546875)" style="fill: rgb(255, 255, 255);" id="object-1"/>
  <path d="M0 0 C1.1634343 -0.00571014 2.32686859 -0.01142029 3.52555847 -0.01730347 C4.79319534 -0.01842133 6.06083221 -0.01953918 7.36688232 -0.02069092 C8.72245925 -0.02532297 10.07803488 -0.03034815 11.43360901 -0.03573608 C15.10941935 -0.04882521 18.78521146 -0.05529827 22.46104145 -0.05974674 C24.76054693 -0.06268325 27.06004749 -0.06678915 29.35955048 -0.07125092 C36.56288194 -0.08491697 43.76620208 -0.09458786 50.9695456 -0.09845281 C59.26853156 -0.10293081 67.5673526 -0.12047044 75.86628842 -0.1494534 C82.29195783 -0.17111079 88.71758097 -0.18115926 95.14328647 -0.18249393 C98.97603377 -0.1835391 102.80862585 -0.18938522 106.64133453 -0.20731354 C110.24964146 -0.22386454 113.85767764 -0.22591597 117.46600914 -0.21717453 C119.40967665 -0.2160444 121.35333547 -0.22970753 123.29695129 -0.243927 C132.26378051 -0.20141652 140.55115026 0.50928014 147.18231201 7.14044189 C150.82034451 11.55805279 151.30131256 16.57291647 151.18231201 22.14044189 C150.24898968 27.77016274 147.62430873 31.2250287 143.38934326 34.91387939 C136.0723843 38.98029553 127.76904201 38.43108966 119.65716553 38.4151001 C118.30114462 38.41945404 116.94512618 38.42463946 115.58911133 38.43058777 C111.92584645 38.44391486 108.26268514 38.44456356 104.59940076 38.44202447 C101.53294426 38.44095059 98.46650836 38.44584868 95.4000563 38.45062989 C88.16201306 38.46170306 80.92402172 38.46217467 73.68597412 38.45611572 C66.23667232 38.45007554 58.78755938 38.46239305 51.3382898 38.48368579 C44.92528987 38.50133765 38.51234986 38.50729756 32.09932655 38.50404805 C28.27669662 38.50224095 24.45420147 38.50481393 20.6315937 38.51876259 C17.03554159 38.53139512 13.43978268 38.52934608 9.84373474 38.5163517 C7.90726446 38.51288249 5.97078499 38.52412344 4.03434753 38.53591919 C-4.05585916 38.48743294 -10.76747764 37.69383538 -17.69268799 33.32794189 C-21.87611944 29.02146834 -23.04942211 25.24414067 -23.38018799 19.32794189 C-23.21303892 12.92852048 -21.24591689 8.7300641 -16.81768799 4.14044189 C-11.4812614 0.65542861 -6.26888333 0.01848633 0 0 Z " transform="translate(22.81768798828125,107.85955810546875)" style="fill: rgb(255, 255, 255);" id="object-2"/>
  <path d="M0 0 C1.80836334 -0.01073296 1.80836334 -0.01073296 3.65325928 -0.02168274 C4.97281616 -0.02437164 6.29237305 -0.02706055 7.6519165 -0.02983093 C9.05822924 -0.03609874 10.46454032 -0.04274582 11.87084961 -0.04974365 C16.48568578 -0.07074826 21.10052214 -0.08114248 25.71539307 -0.09111023 C27.30633817 -0.09515909 28.89728309 -0.09927605 30.48822784 -0.10346031 C37.96333107 -0.12250386 45.43842447 -0.1367368 52.91354728 -0.14507228 C61.53238029 -0.15484276 70.15095636 -0.18116071 78.76969886 -0.22157317 C85.43821672 -0.25176463 92.10666104 -0.26654401 98.7752459 -0.26985329 C102.75502196 -0.27220026 106.73452324 -0.28111446 110.71422577 -0.30631447 C114.46045814 -0.32965364 118.20623595 -0.33380527 121.95252228 -0.32355309 C123.97394208 -0.32282441 125.99533909 -0.34187419 128.0166626 -0.36161804 C135.71041193 -0.31771471 141.68765638 0.12181814 147.61700058 5.52375317 C151.07650714 9.32413436 153.06147327 13.10698892 153.13726807 18.27998352 C152.72167824 24.40993351 151.17483461 29.26954942 146.62419319 33.5366745 C140.11724067 38.22295718 133.44918378 37.84140517 125.70709229 37.7624054 C124.25753124 37.76591109 122.80797407 37.77157473 121.35842896 37.77922058 C117.44101126 37.79341155 113.52430028 37.77646524 109.60695028 37.75293541 C105.49914977 37.73276052 101.39137671 37.73870928 97.28353882 37.74104309 C90.38879809 37.7409896 83.49433217 37.72128004 76.59967041 37.68916321 C68.63564588 37.65224473 60.67198075 37.64349255 52.70788181 37.65046072 C45.03410878 37.65677106 37.36045858 37.64600349 29.68671036 37.62649536 C26.42608002 37.61833431 23.16551258 37.61560941 19.90487289 37.6171875 C16.0650155 37.61806803 12.22549834 37.60380527 8.38573074 37.57796097 C6.9788859 37.57081484 5.57200483 37.56870807 4.16514587 37.5720787 C2.24086218 37.5758089 0.31657147 37.55916448 -1.6076355 37.5415802 C-3.22085788 37.53598713 -3.22085788 37.53598713 -4.86667061 37.53028107 C-10.05801927 36.87330938 -13.92364185 34.68214428 -17.20648193 30.64717102 C-17.69761475 30.05935852 -18.18874756 29.47154602 -18.69476318 28.86592102 C-21.90272788 24.2681866 -21.53699497 18.49587039 -20.89398193 13.14717102 C-18.72319521 7.49564006 -15.24418101 3.9930216 -9.89398193 1.14717102 C-6.57405714 0.07091765 -3.47762422 0.01418321 0 0 Z " transform="translate(20.89398193359375,306.8528289794922)" style="fill: rgb(255, 255, 255);" id="object-3"/>
  <path d="M0 0 C1.22233337 -0.00997513 2.44466675 -0.01995026 3.70404053 -0.03022766 C5.05059801 -0.03112337 6.39715567 -0.03178699 7.74371338 -0.03224182 C9.16825798 -0.03986723 10.59279848 -0.04829538 12.01733398 -0.0574646 C15.88116333 -0.07938131 19.74491355 -0.08820489 23.60879803 -0.09329104 C26.02556733 -0.09693852 28.44231602 -0.10318067 30.85907745 -0.11029243 C39.29849657 -0.1347789 47.73785431 -0.1478367 56.17730713 -0.15138245 C64.03051744 -0.15501521 71.88333633 -0.1848938 79.73642707 -0.22678703 C86.48906782 -0.26154035 93.24157918 -0.27693177 99.99430871 -0.27762848 C104.02277499 -0.2784197 108.05084253 -0.28708622 112.079216 -0.31562614 C115.87152033 -0.34189316 119.66309782 -0.34396473 123.45545197 -0.3279705 C124.84171643 -0.32616271 126.22802351 -0.33278611 127.61419678 -0.34878922 C135.78168124 -0.43727851 142.38750246 -0.03772845 148.91656494 5.27415466 C152.85638588 9.89368185 154.17573764 15.25098109 153.91656494 21.27415466 C152.77740337 26.88931389 150.39476165 30.62911083 145.91656494 34.27415466 C141.669726 36.73761847 138.60262565 37.65061801 133.70614624 37.66183472 C132.48099304 37.67173935 131.25583984 37.68164398 129.99356079 37.69184875 C128.64904684 37.68761127 127.30453387 37.68305347 125.96002197 37.6782074 C124.53370632 37.68391426 123.10739523 37.69087974 121.68109131 37.69900513 C117.81733022 37.7169186 113.95379647 37.71577142 110.09000635 37.71006274 C106.85951608 37.70696772 103.62906928 37.71306694 100.3985852 37.71910149 C92.77417043 37.73313965 85.14986772 37.73159184 77.52545166 37.72019958 C69.67167397 37.7087236 61.81823797 37.72278675 53.96450531 37.74959606 C47.21099993 37.77178265 40.45760157 37.77838365 33.70406234 37.77251965 C29.67516451 37.76915537 25.64648559 37.77152952 21.61761856 37.78877068 C17.82699669 37.80428473 14.03687912 37.80023546 10.24627686 37.78146553 C8.85960865 37.77779166 7.47290271 37.78085297 6.08626938 37.79135132 C-2.20959419 37.84933713 -9.30982962 37.85280505 -15.62922478 31.79149532 C-20.09967322 26.71673493 -20.37987196 22.48621552 -20.29437256 15.99681091 C-19.88635155 10.73031752 -17.95405366 8.10692028 -14.20843506 4.52415466 C-9.43433749 1.08680441 -5.86455304 0.02572075 0 0 Z " transform="translate(20.08343505859375,240.72584533691406)" style="fill: rgb(255, 255, 255);" id="object-4"/>
  <path d="M0 0 C1.22944336 -0.0071553 2.45888672 -0.01431061 3.72558594 -0.02168274 C5.09043859 -0.02452298 6.45529151 -0.02723471 7.82014465 -0.02983093 C9.25586613 -0.0360967 10.69158599 -0.0427436 12.12730408 -0.04974365 C16.84497449 -0.07077594 21.5626452 -0.08114638 26.28034973 -0.09111023 C27.90565317 -0.09515833 29.53095644 -0.09927526 31.15625954 -0.10346031 C38.79368279 -0.12251145 46.4310964 -0.13674172 54.06853884 -0.14507228 C62.87755118 -0.15483987 71.68631192 -0.18114708 80.49523562 -0.22157317 C87.30810576 -0.25176315 94.1209039 -0.26654395 100.93383962 -0.26985329 C105.00081853 -0.27220083 109.06752864 -0.28112211 113.13443565 -0.30631447 C116.96355025 -0.32965037 120.79222012 -0.33380654 124.62138748 -0.32355309 C126.02258219 -0.32305892 127.4237992 -0.32934414 128.82492638 -0.34310913 C136.69011807 -0.4160209 142.42423418 -0.18569568 149.11238098 4.14717102 C153.16259648 8.16298978 154.92740682 13.28873388 155.23738098 18.91670227 C154.91446713 24.67869634 153.02038013 28.65999056 148.73738098 32.52217102 C144.18865863 36.24007651 139.93093536 37.39642996 134.09814453 37.40786743 C132.89119431 37.41495224 131.68424408 37.42203705 130.4407196 37.42933655 C129.124758 37.42685913 127.80879639 37.42438171 126.45295715 37.42182922 C125.04649587 37.42617873 123.64003695 37.43136267 122.23358154 37.43731689 C118.41938577 37.45069474 114.60528917 37.45128677 110.79107451 37.4487536 C107.60289347 37.44768274 104.4147324 37.45257035 101.22655565 37.45735902 C93.70142165 37.46845069 86.17633756 37.46889398 78.65119934 37.46284485 C70.8991792 37.4568089 63.14734074 37.46910716 55.39535159 37.49041492 C48.73105026 37.50805654 42.06680662 37.51402812 35.40248281 37.51077718 C31.42614096 37.50896775 27.44992863 37.51156609 23.47360802 37.52549171 C19.73150443 37.53810669 15.98968286 37.53609155 12.24758339 37.52308083 C10.22859074 37.51960362 8.20958933 37.53086685 6.19062805 37.54264832 C-8.26397433 37.45922862 -8.26397433 37.45922862 -13.39866352 32.76605701 C-18.26247239 27.21604896 -19.30224837 23.04458218 -19.12980652 15.83076477 C-18.5556571 9.46881876 -15.27121009 6.24398725 -10.60636902 2.34638977 C-7.17290799 -0.04922963 -4.05032834 0.01616346 0 0 Z " transform="translate(18.887619018554688,174.8528289794922)" style="fill: rgb(255, 255, 255);" id="object-5"/>
</svg>