<?xml version="1.0" encoding="utf-8"?>
<svg xmlns="http://www.w3.org/2000/svg" viewBox="128.056 38.9547 255.7341 434.0509" width="255.734px" height="434.051px" preserveAspectRatio="none"><path d="M0 0 C2.48013243 2.17568504 4.81148111 4.42295655 7.109375 6.7890625 C7.67011719 7.32917969 8.23085938 7.86929688 8.80859375 8.42578125 C20.7224169 20.83992244 22.70039251 36.79278809 22.42578125 53.125 C22.15896856 59.9013725 20.84517651 65.54489094 18.109375 71.7890625 C17.79355469 72.58183594 17.47773438 73.37460938 17.15234375 74.19140625 C14.71982847 79.66684328 11.32725083 84.38313 7.84375 89.21875 C0.38970985 99.6747247 -6.61645412 110.41684565 -13.640625 121.1640625 C-27.70924072 142.68477698 -27.70924072 142.68477698 -33.72216797 150.77001953 C-39.41174438 158.69135503 -44.69086018 166.91064078 -50.078125 175.0390625 C-51.96922548 177.88959884 -53.86103509 180.73965817 -55.75422668 183.58880615 C-56.92422803 185.34985849 -58.09299558 187.1117314 -59.26029968 188.87457275 C-59.79468155 189.67941101 -60.32906342 190.48424927 -60.87963867 191.31347656 C-61.38393402 192.07728638 -61.88822937 192.84109619 -62.4078064 193.62805176 C-63.81434892 195.67790026 -65.31688966 197.61281648 -66.84887695 199.56933594 C-69.09409408 202.50756054 -69.09409408 202.50756054 -68.97265625 205.29980469 C-67.51574091 208.65149892 -65.63434815 211.61311783 -63.578125 214.6171875 C-63.13802597 215.2737735 -62.69792694 215.9303595 -62.24449158 216.60684204 C-60.80092392 218.75622991 -59.34593525 220.89761177 -57.890625 223.0390625 C-56.87376706 224.54789305 -55.85757932 226.05717547 -54.84204102 227.56689453 C-51.86881441 231.9814895 -48.88116146 236.38618278 -45.890625 240.7890625 C-45.15183105 241.87864258 -44.41303711 242.96822266 -43.65185547 244.09082031 C-41.06539012 247.90399468 -38.47560657 251.71486085 -35.87915039 255.52124023 C-28.48994973 266.35509581 -21.15999893 277.22885974 -13.828125 288.1015625 C-13.19679657 289.0374823 -12.56546814 289.9734021 -11.91500854 290.93768311 C-5.74922025 300.07869139 0.41601247 309.21967182 6.51928711 318.40258789 C7.9087323 320.48792902 9.31101521 322.56371348 10.71875 324.63671875 C21.41327222 340.69801764 25.28416243 358.55603224 21.4609375 377.76953125 C17.26495249 392.49134192 8.03460501 405.0785998 -4.953125 413.2265625 C-21.92439245 422.51525304 -39.26066989 424.06008073 -57.890625 418.7890625 C-76.66900856 412.81092541 -88.32984276 398.56521548 -99.97265625 383.52734375 C-103.04943482 379.56309343 -106.21522603 375.67447113 -109.390625 371.7890625 C-113.89865074 366.26601967 -118.33905865 360.69720888 -122.7265625 355.078125 C-126.22838747 350.60469542 -129.79873664 346.19039048 -133.390625 341.7890625 C-137.89822473 336.26566565 -142.33905142 330.69721814 -146.7265625 325.078125 C-150.22838747 320.60469542 -153.79873664 316.19039048 -157.390625 311.7890625 C-161.89822473 306.26566565 -166.33905142 300.69721814 -170.7265625 295.078125 C-174.22838747 290.60469542 -177.79873664 286.19039048 -181.390625 281.7890625 C-185.89822473 276.26566565 -190.33905142 270.69721814 -194.7265625 265.078125 C-198.22839371 260.60468744 -201.79908231 256.19068002 -205.390625 251.7890625 C-210.90210238 245.0256435 -216.3841189 238.24332917 -221.70214844 231.32617188 C-222.79533177 229.91230946 -223.90848207 228.51394485 -225.0234375 227.1171875 C-231.61650466 218.45516621 -233.81676783 209.38964684 -232.4453125 198.5859375 C-230.47332159 188.64265941 -224.13516094 181.47559326 -217.890625 173.7890625 C-217.37757813 173.15516602 -216.86453125 172.52126953 -216.3359375 171.86816406 C-214.15531949 169.17563268 -211.9712837 166.48597621 -209.77954102 163.80249023 C-206.26786589 159.50152432 -202.80701197 155.16601516 -199.390625 150.7890625 C-194.9087364 145.04886996 -190.33105722 139.39212733 -185.7265625 133.75 C-182.23532417 129.46454632 -178.79243612 125.14576797 -175.390625 120.7890625 C-170.9086239 115.04895582 -166.33105943 109.39213004 -161.7265625 103.75 C-158.23532417 99.46454632 -154.79243612 95.14576797 -151.390625 90.7890625 C-146.9086239 85.04895582 -142.33105943 79.39213004 -137.7265625 73.75 C-134.23532417 69.46454632 -130.79243612 65.14576797 -127.390625 60.7890625 C-122.9086239 55.04895582 -118.33105943 49.39213004 -113.7265625 43.75 C-110.23530453 39.46452221 -106.79348259 35.14496906 -103.390625 30.7890625 C-101.55933609 28.45411877 -99.72510933 26.12149599 -97.890625 23.7890625 C-97.36436523 23.1177832 -96.83810547 22.44650391 -96.29589844 21.75488281 C-82.67164669 4.43456277 -69.61466359 -7.19864352 -47.390625 -11.9609375 C-30.10096823 -13.19591298 -14.13082966 -10.80817511 0 0 Z " transform="matrix(1, 0, 0, 1, 360.890625, 51.2109375)" style="fill: rgb(255, 255, 255);" id="object-0"/></svg>