<?xml version="1.0" encoding="utf-8"?>
<svg version="1.1" xmlns="http://www.w3.org/2000/svg" width="512" height="512">
  <path d="M0 0 C1.05960938 0.72445312 2.11921875 1.44890625 3.2109375 2.1953125 C40.84672655 28.31223669 70.81905742 62.85644683 79.54418945 108.86987305 C81.98221629 125.61220945 80.95681034 143.81534954 76 160 C75.68651611 161.02407959 75.68651611 161.02407959 75.36669922 162.06884766 C65.2462417 193.80993803 42.93223941 220.76346189 16.71826172 240.6875 C15.15604693 241.88080302 13.61024638 243.09551816 12.06640625 244.3125 C3.50326521 250.96348333 -5.63204587 256.56190868 -15 262 C-15.6815918 262.39719238 -16.36318359 262.79438477 -17.06542969 263.20361328 C-42.35769714 277.74946076 -70.31071881 286.37089975 -99 291 C-100.63908325 291.26478149 -100.63908325 291.26478149 -102.3112793 291.53491211 C-108.25148151 292.28387532 -114.19769726 292.22470584 -120.17553711 292.24023438 C-122.40062302 292.24984079 -124.62474334 292.28087503 -126.84960938 292.3125 C-152.0995522 292.49956256 -176.11596376 284.81829081 -196 269 C-197.02480469 268.22269531 -197.02480469 268.22269531 -198.0703125 267.4296875 C-208.89329711 258.70995496 -216.80714809 246.2786591 -223 234 C-223.33628418 233.33548828 -223.67256836 232.67097656 -224.01904297 231.98632812 C-240.04041779 199.6877181 -243.23293601 162.61778583 -243.1875 127.0625 C-243.18722809 126.25595978 -243.18695618 125.44941956 -243.18667603 124.61843872 C-243.16567024 110.99711197 -242.6236292 97.53532515 -241 84 C-240.85522217 82.73760498 -240.85522217 82.73760498 -240.70751953 81.44970703 C-236.37516737 44.90571188 -224.42433838 7.50590908 -195.4375 -17.0625 C-139.14389872 -60.1772892 -53.52600919 -36.78926295 0 0 Z M-180 20 C-211.81671368 57.74454247 -207.72967402 120.13493203 -204 166 C-201.32338357 193.74922872 -192.66373772 221.4796 -172 241 C-165.61809533 245.9488689 -158.68993853 249.56447695 -151 252 C-150.07960938 252.2990625 -149.15921875 252.598125 -148.2109375 252.90625 C-130.34494889 257.69415762 -109.87358727 256.14507297 -92 252 C-90.88117432 251.75056641 -90.88117432 251.75056641 -89.73974609 251.49609375 C-70.89366343 247.21559548 -52.97730681 240.19342262 -36 231 C-35.38543945 230.67 -34.77087891 230.34 -34.13769531 230 C-25.97708482 225.58559686 -18.32885118 220.69780122 -11 215 C-9.69675781 213.98679687 -9.69675781 213.98679687 -8.3671875 212.953125 C15.57588865 193.82658603 37.48072397 169.55975964 42.6484375 138.203125 C45.39616117 113.16830937 37.70076793 89.87012587 22.3125 70.0625 C-10.24399117 30.8939555 -58.02945126 3.71522569 -109 -2 C-136.26146972 -3.70372612 -160.56484329 -0.88554154 -180 20 Z " transform="translate(432,101)" style="fill: rgb(255, 255, 255);"/>
  <path d="M0 0 C4.6359792 3.30047694 8.00798899 6.32383356 9.25 12.0546875 C10.2581751 18.9352227 8.99451134 23.20965308 5.26779175 29.12417603 C1.63786902 32.93829392 -2.60192614 34.88463872 -7.28076172 37.21630859 C-8.29524321 37.73332525 -9.30972469 38.25034191 -10.35494804 38.78302574 C-13.64603694 40.45597161 -16.94551074 42.11150021 -20.24609375 43.765625 C-22.41601319 44.86197018 -24.58563007 45.95891442 -26.75494385 47.05645752 C-33.10744433 50.26368601 -39.47097316 53.44865477 -45.83727121 56.62837648 C-49.01182488 58.21435808 -52.18537578 59.80234426 -55.35910034 61.38998413 C-60.66104878 64.04185725 -65.96381926 66.69208064 -71.26708984 69.34130859 C-77.38474874 72.397393 -83.50093358 75.45641228 -89.61640179 78.51687777 C-94.91128015 81.16658609 -100.20693629 83.81473487 -105.50324619 86.46158063 C-108.6484837 88.03342329 -111.79345475 89.60579262 -114.93771744 91.1795845 C-118.42234144 92.92361006 -121.90859481 94.66436193 -125.39501953 96.40478516 C-126.42559479 96.9210849 -127.45617004 97.43738464 -128.51797485 97.96932983 C-129.46765137 98.44275818 -130.41732788 98.91618652 -131.39578247 99.40396118 C-132.21672457 99.81424372 -133.03766666 100.22452625 -133.88348579 100.64724159 C-140.16160881 103.6191052 -145.58824592 105.23213881 -152.4296875 103.078125 C-157.30645373 100.86560346 -160.18241903 98.12904051 -163.24609375 93.765625 C-165.11404708 88.16176502 -164.98145242 82.05821379 -163.18359375 76.453125 C-157.57858526 68.67843581 -149.45239239 65.01462327 -141.078125 60.87402344 C-139.7481448 60.20728011 -138.41859689 59.53967391 -137.08944702 58.87127686 C-133.49900801 57.06896764 -129.90247153 55.279162 -126.30450058 53.49194622 C-122.53024079 51.61491145 -118.76121675 49.72741696 -114.99145508 47.84136963 C-108.66342089 44.67737927 -102.33150525 41.52127163 -95.99707031 38.37011719 C-88.68330933 34.73169354 -81.37524233 31.08203864 -74.07024479 27.42605567 C-67.02782092 23.90168699 -59.98200037 20.38416515 -52.93441772 16.87012482 C-49.94156255 15.3777746 -46.94980282 13.88326092 -43.95889282 12.3870163 C-40.43549171 10.62487502 -36.90911576 8.86883147 -33.38039017 7.11737823 C-32.08902113 6.47526247 -30.79864936 5.8311364 -29.50938034 5.18481445 C-27.74364966 4.30007967 -25.9738351 3.42350969 -24.20385742 2.54730225 C-23.21649094 2.05548336 -22.22912445 1.56366447 -21.21183777 1.05694199 C-14.06117696 -2.05653298 -7.13916611 -3.92343737 0 0 Z " transform="translate(164.24609375,214.234375)" style="fill: rgb(255, 255, 255);"/>
  <path d="M0 0 C5.05556853 2.91667415 7.75492595 7.18096318 9.31640625 12.73828125 C10.19643998 18.10185523 9.55450273 22.82925383 6.6875 27.5 C2.42788895 32.49949918 -2.60155422 35.02793485 -8.41845703 37.95068359 C-9.42871004 38.46770025 -10.43896305 38.98471691 -11.47982979 39.51740074 C-14.75234216 41.18839958 -18.03192255 42.84489877 -21.3125 44.5 C-23.47186111 45.59654694 -25.63102045 46.69349129 -27.78997803 47.79083252 C-34.72348817 51.30796113 -41.66899591 54.80106131 -48.6171875 58.2890625 C-49.23692145 58.60025386 -49.8566554 58.91144523 -50.49516916 59.23206663 C-56.36534882 62.17966379 -62.23615153 65.12601545 -68.108778 68.06873512 C-75.53218717 71.78860656 -82.95205975 75.51534571 -90.36741245 79.25125277 C-95.63919316 81.90651622 -100.91480347 84.55406539 -106.19329846 87.19595563 C-109.32511896 88.76368144 -112.45521749 90.33462741 -115.58120346 91.9139595 C-119.05106208 93.66678493 -122.52879352 95.40360326 -126.00732422 97.13916016 C-127.02351837 97.6554599 -128.03971252 98.17175964 -129.08670044 98.70370483 C-136.65533755 102.45506631 -144.02769327 105.92091803 -152.46484375 103.25390625 C-157.44755394 101.22079194 -161.13064623 98.57412652 -163.609375 93.6796875 C-165.32911511 88.34849315 -165.80147777 82.5271772 -163.28622246 77.41351891 C-159.28611865 70.87985526 -154.99378918 68.02557881 -148.15283203 64.79931641 C-147.14737398 64.30034662 -146.14191593 63.80137684 -145.10598946 63.28728676 C-142.95335497 62.22061798 -140.79579702 61.16383684 -138.63382721 60.11621857 C-134.23232666 57.9743679 -129.86887115 55.76028617 -125.50204277 53.54883385 C-120.25067287 50.89391373 -114.98555747 48.26653197 -109.72132254 45.63724852 C-106.54676887 44.05126692 -103.37321797 42.46328074 -100.19949341 40.87564087 C-94.89754497 38.22376775 -89.59477449 35.57354436 -84.29150391 32.92431641 C-78.17384501 29.868232 -72.05766017 26.80921272 -65.94219196 23.74874723 C-60.6473136 21.09903891 -55.35165746 18.45089013 -50.05534756 15.80404437 C-46.91011005 14.23220171 -43.765139 12.65983238 -40.62087631 11.0860405 C-37.13625231 9.34201494 -33.64999894 7.60126307 -30.16357422 5.86083984 C-29.13299896 5.3445401 -28.10242371 4.82824036 -27.0406189 4.29629517 C-26.09094238 3.82286682 -25.14126587 3.34943848 -24.16281128 2.86166382 C-22.93139813 2.24624002 -22.93139813 2.24624002 -21.67510796 1.61838341 C-14.45024207 -1.80163814 -7.63375174 -3.26747707 0 0 Z " transform="translate(164.3125,346.5)" style="fill: rgb(255, 255, 255);"/>
  <path d="M0 0 C5.05556853 2.91667415 7.75492595 7.18096318 9.31640625 12.73828125 C10.19643998 18.10185523 9.55450273 22.82925383 6.6875 27.5 C2.43004167 32.4951543 -2.5928601 35.02634355 -8.40527344 37.94848633 C-9.41510159 38.46543218 -10.42492973 38.98237803 -11.46535873 39.5149889 C-14.74220697 41.18781256 -18.02649617 42.84524172 -21.3125 44.5 C-22.38716019 45.04369106 -23.46182037 45.58738213 -24.56904602 46.14754868 C-32.02483335 49.91906205 -39.49463546 53.66224423 -46.9695406 57.39568305 C-50.15036843 58.98480227 -53.33019401 60.57592505 -56.51019287 62.16670227 C-61.82053369 64.82277147 -67.13169645 67.47719113 -72.44335938 70.13061523 C-78.57696421 73.19466984 -84.709092 76.26166534 -90.84050584 79.33010167 C-96.14554511 81.9848875 -101.45135918 84.63811973 -106.75782943 87.29004413 C-109.91082849 88.86576628 -113.06355863 90.44202004 -116.2155838 92.01968956 C-119.70540683 93.7663093 -123.19685298 95.5096678 -126.68847656 97.25268555 C-128.24512527 98.03252808 -128.24512527 98.03252808 -129.83322144 98.828125 C-131.25361221 99.53620552 -131.25361221 99.53620552 -132.70269775 100.2585907 C-133.52548344 100.66979503 -134.34826912 101.08099936 -135.1959877 101.50466442 C-141.19560443 104.32611365 -148.44428827 104.88906798 -154.73828125 102.62890625 C-159.31222379 100.00168878 -162.78922414 96.66221262 -164.3125 91.5 C-165.52979872 83.84383174 -164.60737431 79.09185946 -160.24740219 72.74332809 C-156.89109677 68.85202326 -152.74141142 66.96333539 -148.15283203 64.79931641 C-147.14737398 64.30034662 -146.14191593 63.80137684 -145.10598946 63.28728676 C-142.95335497 62.22061798 -140.79579702 61.16383684 -138.63382721 60.11621857 C-134.23232666 57.9743679 -129.86887115 55.76028617 -125.50204277 53.54883385 C-120.25067287 50.89391373 -114.98555747 48.26653197 -109.72132254 45.63724852 C-106.54676887 44.05126692 -103.37321797 42.46328074 -100.19949341 40.87564087 C-94.89754497 38.22376775 -89.59477449 35.57354436 -84.29150391 32.92431641 C-78.17384501 29.868232 -72.05766017 26.80921272 -65.94219196 23.74874723 C-60.6473136 21.09903891 -55.35165746 18.45089013 -50.05534756 15.80404437 C-46.91011005 14.23220171 -43.765139 12.65983238 -40.62087631 11.0860405 C-37.13625231 9.34201494 -33.64999894 7.60126307 -30.16357422 5.86083984 C-29.13299896 5.3445401 -28.10242371 4.82824036 -27.0406189 4.29629517 C-26.09094238 3.82286682 -25.14126587 3.34943848 -24.16281128 2.86166382 C-22.93139813 2.24624002 -22.93139813 2.24624002 -21.67510796 1.61838341 C-14.45024207 -1.80163814 -7.63375174 -3.26747707 0 0 Z " transform="translate(164.3125,81.5)" style="fill: rgb(255, 255, 255);"/>
  <path d="M0 0 C4.77541648 3.25049357 7.7408776 7.56128827 8.859375 13.265625 C8.94554144 19.14648421 7.9402414 24.80065313 3.859375 29.265625 C-3.35056319 34.3751144 -11.55535113 38.1303352 -19.43383789 42.08129883 C-20.74103762 42.74035973 -22.04808589 43.39972111 -23.35499573 44.05935669 C-26.87352318 45.83373518 -30.39464175 47.60290561 -33.91667867 49.37030625 C-36.12187574 50.47696934 -38.32665955 51.5844518 -40.53133965 52.69214439 C-47.44439049 56.16498168 -54.35917052 59.63434287 -61.27630717 63.09903508 C-69.23562442 67.08583505 -77.18885604 71.08445346 -85.13714033 75.09320241 C-91.3031902 78.20214069 -97.47459568 81.30026735 -103.65011591 84.39035052 C-107.32969619 86.23183548 -111.0068643 88.07778574 -114.67845345 89.93515968 C-118.12880834 91.68026673 -121.58564204 93.41180774 -125.04779625 95.13338089 C-126.31234268 95.76502331 -127.57453321 96.40140938 -128.83405304 97.04301643 C-144.34771324 104.93735114 -144.34771324 104.93735114 -153.390625 102.140625 C-158.95785041 99.70565564 -162.38942306 95.59078058 -165.140625 90.265625 C-165.609375 87.43359375 -165.609375 87.43359375 -165.640625 84.453125 C-165.68703125 82.98939453 -165.68703125 82.98939453 -165.734375 81.49609375 C-164.76416951 76.21740991 -162.42246141 71.93429162 -158.03099632 68.72289085 C-155.43116778 67.25531833 -152.79589575 65.94037663 -150.1003418 64.65698242 C-148.58765355 63.90294648 -148.58765355 63.90294648 -147.04440594 63.13367748 C-144.87271053 62.05280914 -142.69643388 60.98110581 -140.51610947 59.91775131 C-137.15452632 58.27242898 -133.8120169 56.59367478 -130.47354126 54.90200806 C-123.89547022 51.56949701 -117.30405347 48.26439929 -110.7087996 44.96608377 C-108.75643117 43.98953839 -106.80435038 43.01242036 -104.85236168 42.0351162 C-98.02113812 38.61492949 -91.18892684 35.19672589 -84.35571289 31.78051758 C-78.0113337 28.60863132 -71.66922764 25.43223218 -65.32810479 22.2538417 C-59.84199963 19.5042595 -54.35436344 16.75775036 -48.86551589 14.01364678 C-45.60409465 12.38306331 -42.34329985 10.75125716 -39.08405495 9.11632729 C-35.47337803 7.30526352 -31.85954043 5.50059782 -28.24536133 3.6965332 C-27.17378784 3.15793671 -26.10221436 2.61934021 -24.99816895 2.06442261 C-24.01621048 1.57554062 -23.03425201 1.08665863 -22.02253723 0.58296204 C-21.17117597 0.15700902 -20.3198147 -0.268944 -19.44265461 -0.70780468 C-12.68141106 -3.72292313 -6.48638495 -3.57002583 0 0 Z " transform="translate(165.140625,148.734375)" style="fill: rgb(255, 255, 255);"/>
  <path d="M0 0 C5.43550687 3.41278546 8.37978061 6.59626735 9.875 12.96875 C10.82120018 18.59767554 10.25609696 22.92375613 7.3828125 27.87109375 C1.45887405 33.8253623 -5.56509818 37.18673289 -13.03222656 40.87036133 C-14.38840707 41.5485651 -15.74414915 42.22764617 -17.0994873 42.90753174 C-20.75998366 44.74061902 -24.42652074 46.56130307 -28.09436512 48.37963319 C-31.93746077 50.28735684 -35.77500669 52.20618147 -39.61322021 54.123703 C-46.05234566 57.33867346 -52.49508169 60.54630327 -58.94042969 63.7487793 C-68.03409779 68.26714244 -77.12079964 72.79937827 -86.20632601 77.33408511 C-92.50219407 80.47579522 -98.79970384 83.61421285 -105.09752941 86.75199676 C-106.62416836 87.51263522 -108.15076235 88.27336395 -109.6773119 89.03418183 C-114.02448247 91.20062031 -118.37266467 93.36500135 -122.72251892 95.52604675 C-124.04067486 96.18126257 -125.35849981 96.83714474 -126.67597198 97.49373436 C-128.47122583 98.38825458 -130.26783391 99.28005539 -132.06451416 100.17170715 C-133.57321768 100.92187969 -133.57321768 100.92187969 -135.11240005 101.68720722 C-141.21210737 104.57023082 -147.44634986 104.90771375 -153.8671875 102.80859375 C-158.28573041 99.69552943 -161.89109749 96.04936379 -163.6171875 90.87109375 C-164.34569686 84.42898953 -164.27680661 79.00291448 -160.25474072 73.69964981 C-154.5044762 67.27867923 -145.02626425 63.93615163 -137.45581055 60.16894531 C-136.13914913 59.51007722 -134.82266114 58.85086244 -133.5063324 58.19132996 C-129.9548185 56.41316421 -126.40084453 54.6399694 -122.84633231 52.86780643 C-119.12017617 51.00913999 -115.39614543 49.14622414 -111.67182922 47.28387451 C-105.42507726 44.16096563 -99.17678911 41.04114865 -92.92749023 37.92333984 C-85.70128217 34.31811653 -78.47718787 30.70868698 -71.25427598 27.09686494 C-63.55665688 23.24771794 -55.85751935 19.40161602 -48.15792871 15.5564146 C-45.94044502 14.4487386 -43.72324628 13.34049399 -41.50610924 12.23212433 C-38.02766572 10.49340418 -34.54821101 8.75672434 -31.06795692 7.02163124 C-29.79010614 6.38416783 -28.512594 5.74602507 -27.23544312 5.10716057 C-25.49497862 4.23668343 -23.75316324 3.36890884 -22.01127625 2.50128174 C-21.03627009 2.01461658 -20.06126394 1.52795143 -19.05671215 1.02653885 C-13.0131758 -1.83589358 -6.2652872 -2.70248955 0 0 Z " transform="translate(163.6171875,280.12890625)" style="fill: rgb(255, 255, 255);"/>
</svg>