<?xml version="1.0" encoding="utf-8"?>
<svg xmlns="http://www.w3.org/2000/svg" viewBox="128.418 39.261 254.9882 433.129" width="254.988px" height="433.129px" preserveAspectRatio="none"><path d="M0 0 C8.17613175 6.37190156 14.32421129 13.90327875 20.53027344 22.09082031 C23.11671266 25.45061346 25.81319844 28.72034726 28.5 32 C33.00874125 37.52244709 37.4484461 43.09186957 41.8359375 48.7109375 C45.33776247 53.18436708 48.90811164 57.59867202 52.5 62 C57.00759973 67.52339685 61.44842642 73.09184436 65.8359375 78.7109375 C69.33776247 83.18436708 72.90811164 87.59867202 76.5 92 C81.00759973 97.52339685 85.44842642 103.09184436 89.8359375 108.7109375 C93.33776247 113.18436708 96.90811164 117.59867202 100.5 122 C105.00759973 127.52339685 109.44842642 133.09184436 113.8359375 138.7109375 C117.33776559 143.18437108 120.9082844 147.59852729 124.5 152 C129.52067692 158.15659676 134.48636645 164.35074391 139.359375 170.625 C141.12953097 172.90279357 142.93315168 175.14708463 144.765625 177.375 C152.20247826 186.51465284 156.90904242 194.90757131 156.36328125 207.0390625 C155.0437368 217.79405923 149.33407779 225.0506852 142.58251953 233.10693359 C140.40923818 235.70669039 138.27782476 238.33952941 136.14428711 240.97192383 C135.04417818 242.32880651 133.94211138 243.68410405 132.83813477 245.0378418 C129.34486559 249.32266376 125.90229089 253.64268009 122.5 258 C118.0179989 263.74010668 113.44043443 269.39693246 108.8359375 275.0390625 C105.34469917 279.32451618 101.90181112 283.64329453 98.5 288 C94.0179989 293.74010668 89.44043443 299.39693246 84.8359375 305.0390625 C81.34469917 309.32451618 77.90181112 313.64329453 74.5 318 C70.0179989 323.74010668 65.44043443 329.39693246 60.8359375 335.0390625 C57.34469917 339.32451618 53.90181112 343.64329453 50.5 348 C46.0179989 353.74010668 41.44043443 359.39693246 36.8359375 365.0390625 C33.34467953 369.32454029 29.90285759 373.64409344 26.5 378 C24.66871109 380.33494373 22.83448433 382.66756651 21 385 C20.47374023 385.6712793 19.94748047 386.34255859 19.40527344 387.03417969 C7.06923369 402.71681389 -7.05403473 417.35633448 -28 420 C-47.33379315 421.60835714 -63.41103246 418.50021508 -78.61328125 405.8203125 C-90.03959054 395.24360739 -97.19530589 381.01764482 -98.23828125 365.44140625 C-98.60764505 346.13728754 -91.70654661 331.85449379 -80.640625 316.453125 C-73.22298797 306.03334563 -66.24651195 295.32989777 -59.25 284.625 C-45.18606601 263.11144714 -45.18606601 263.11144714 -39.17724609 255.03222656 C-33.4419866 247.04479408 -28.11932331 238.75777296 -22.6875 230.5625 C-20.77580379 227.68110631 -18.86341036 224.8001814 -16.94966125 221.92015076 C-15.76639293 220.13915829 -14.58435936 218.35734469 -13.4037323 216.57460022 C-12.86919937 215.76953537 -12.33466644 214.96447052 -11.78393555 214.13500977 C-11.31731003 213.43094498 -10.85068451 212.72688019 -10.36991882 212.0014801 C-9.40550267 210.59244789 -8.38522604 209.22085442 -7.32756042 207.88040161 C-5.7907527 206.08113476 -5.7907527 206.08113476 -5.97509766 203.77856445 C-7.50823373 199.62215147 -9.9140523 196.19208243 -12.3984375 192.54296875 C-12.94803131 191.72234451 -13.49762512 190.90172028 -14.06387329 190.05622864 C-15.82673483 187.42817759 -17.60074447 184.80786842 -19.375 182.1875 C-20.53066852 180.46728077 -21.68562349 178.74658193 -22.83984375 177.02539062 C-28.42644913 168.70720409 -34.06756343 160.42778841 -39.75663757 152.1794281 C-45.49129085 143.85388049 -51.1321326 135.46476283 -56.78051758 127.08056641 C-58.69466642 124.23936276 -60.60994075 121.39892041 -62.52539062 118.55859375 C-68.17086676 110.18459797 -73.80573089 101.80435976 -79.39624023 93.39355469 C-80.84134852 91.23678171 -82.30870826 89.09868422 -83.79296875 86.96875 C-88.87880997 79.64096187 -93.15276281 72.52927821 -96 64 C-96.24363281 63.28070313 -96.48726562 62.56140625 -96.73828125 61.8203125 C-101.01511051 46.40045191 -97.47224621 30.08646149 -90.015625 16.33203125 C-82.06552489 3.1897146 -69.61396449 -5.91251601 -55.1875 -10.8125 C-35.9105973 -15.53616029 -16.05855973 -11.43835958 0 0 Z " transform="matrix(1, 0, 0, 1, 227, 51.999999999999986)" style="fill: rgb(255, 255, 255);" id="object-0"/></svg>