<?xml version="1.0" encoding="utf-8"?>
<svg version="1.1" xmlns="http://www.w3.org/2000/svg" width="512" height="512">
  <path d="M0 0 C5.34695977 4.464212 10.31846816 9.1808263 15.23022461 14.11669922 C16.02128601 14.90761459 16.81234741 15.69852997 17.62738037 16.51341248 C20.22141442 19.10813889 22.81189602 21.7063811 25.40234375 24.3046875 C27.20816034 26.11237067 29.01419896 27.91983206 30.82044983 29.7270813 C35.07552727 33.98557671 39.32837186 38.24628943 43.58012348 42.50810444 C48.42463409 47.36382988 53.27201732 52.21668335 58.1196326 57.069309 C68.08293322 67.04303501 78.0426579 77.0203255 88 87 C82.94874402 93.09435992 77.46938459 98.69233568 71.88305664 104.29394531 C70.86873104 105.31454822 69.85459128 106.33533586 68.84062195 107.35629272 C65.53401195 110.68377418 62.22221973 114.00607323 58.91015625 117.328125 C57.76553104 118.47680245 56.6209383 119.62551224 55.47637749 120.77425385 C50.10275058 126.16688583 44.72674818 131.55713562 39.34779173 136.94445157 C33.15210167 143.14993251 26.96479867 149.36362292 20.78440577 155.58433843 C15.99464937 160.40426424 11.1972332 165.21647929 6.39402479 170.02299953 C3.53010449 172.88926689 0.66956512 175.75872439 -2.1829052 178.63639069 C-4.8639566 181.34074591 -7.55440141 184.03539147 -10.25225639 186.7229805 C-11.23810576 187.70833517 -12.22056522 188.69709548 -13.19926834 189.68954849 C-23.34034769 199.96503887 -23.34034769 199.96503887 -31.37109375 201.43359375 C-32.05300781 201.43488281 -32.73492187 201.43617188 -33.4375 201.4375 C-34.11683594 201.45683594 -34.79617187 201.47617187 -35.49609375 201.49609375 C-42.60731357 200.08716252 -47.77388262 195.81480455 -52.7355957 190.78198242 C-53.66646248 189.86162956 -53.66646248 189.86162956 -54.61613464 188.92268372 C-56.64613315 186.91016 -58.66129892 184.88351463 -60.67578125 182.85546875 C-62.09147295 181.44247461 -63.50775773 180.03007445 -64.92460632 178.61824036 C-67.88377359 175.66495364 -70.83562744 172.70459609 -73.7824707 169.73901367 C-77.55276296 165.9459125 -81.34075853 162.17108188 -85.13441181 158.40136242 C-88.05936339 155.4908896 -90.97469068 152.57092621 -93.88722801 149.64803505 C-95.28010006 148.25250258 -96.6759278 146.8599135 -98.07479286 145.47038841 C-100.030185 143.52519778 -101.97222723 141.56756678 -103.91137695 139.60620117 C-104.77401657 138.75570694 -104.77401657 138.75570694 -105.65408325 137.88803101 C-110.15720326 133.28926982 -113.42485516 128.25162016 -113.4375 121.5625 C-113.45683594 120.88316406 -113.47617188 120.20382812 -113.49609375 119.50390625 C-111.66163557 110.24494805 -104.99068446 104.44197986 -98.54003906 98.0859375 C-97.46471127 97.01173955 -96.39026657 95.93665697 -95.31663513 94.86076355 C-92.4146933 91.95767898 -89.50062795 89.06705179 -86.58415318 86.17857742 C-83.53270258 83.15221387 -80.49265406 80.11443971 -77.45135498 77.07788086 C-71.69730242 71.33623664 -65.93313423 65.6048611 -60.16522098 59.87714481 C-53.59627119 53.35297943 -47.03874129 46.81738665 -40.48212481 40.28083038 C-27.00071108 26.84117244 -13.50509118 13.4158629 0 0 Z " transform="translate(113,311)" style="fill: rgb(255, 255, 255);"/>
  <path d="M0 0 C1.01900391 -0.02900391 1.01900391 -0.02900391 2.05859375 -0.05859375 C9.16981357 1.35033748 14.33638262 5.62269545 19.2980957 10.65551758 C19.91867355 11.26908615 20.5392514 11.88265472 21.17863464 12.51481628 C23.20863315 14.52734 25.22379892 16.55398537 27.23828125 18.58203125 C28.65397295 19.99502539 30.07025773 21.40742555 31.48710632 22.81925964 C34.44627359 25.77254636 37.39812744 28.73290391 40.3449707 31.69848633 C44.11526296 35.4915875 47.90325853 39.26641812 51.69691181 43.03613758 C54.62186339 45.9466104 57.53719068 48.86657379 60.44972801 51.78946495 C61.84260006 53.18499742 63.2384278 54.5775865 64.63729286 55.96711159 C66.592685 57.91230222 68.53472723 59.86993322 70.47387695 61.83129883 C71.04897003 62.39829498 71.62406311 62.96529114 72.21658325 63.54946899 C76.71970326 68.14823018 79.98735516 73.18587984 80 79.875 C80.01933594 80.55433594 80.03867187 81.23367187 80.05859375 81.93359375 C78.22413557 91.19255195 71.55318446 96.99552014 65.10253906 103.3515625 C64.02721127 104.42576045 62.95276657 105.50084303 61.87913513 106.57673645 C58.9771933 109.47982102 56.06312795 112.37044821 53.14665318 115.25892258 C50.09520258 118.28528613 47.05515406 121.32306029 44.01385498 124.35961914 C38.25980242 130.10126336 32.49563423 135.8326389 26.72772098 141.56035519 C20.15877119 148.08452057 13.60124129 154.62011335 7.04462481 161.15666962 C-6.43678892 174.59632756 -19.93240882 188.0216371 -33.4375 201.4375 C-38.78445977 196.973288 -43.75596816 192.2566737 -48.66772461 187.32080078 C-49.45878601 186.52988541 -50.24984741 185.73897003 -51.06488037 184.92408752 C-53.65891442 182.32936111 -56.24939602 179.7311189 -58.83984375 177.1328125 C-60.64566034 175.32512933 -62.45169896 173.51766794 -64.25794983 171.7104187 C-68.51302727 167.45192329 -72.76587186 163.19121057 -77.01762348 158.92939556 C-81.86213409 154.07367012 -86.70951732 149.22081665 -91.5571326 144.368191 C-101.52043322 134.39446499 -111.4801579 124.4171745 -121.4375 114.4375 C-116.38624402 108.34314008 -110.90688459 102.74516432 -105.32055664 97.14355469 C-104.30623104 96.12295178 -103.29209128 95.10216414 -102.27812195 94.08120728 C-98.97151195 90.75372582 -95.65971973 87.43142677 -92.34765625 84.109375 C-91.20303104 82.96069755 -90.0584383 81.81198776 -88.91387749 80.66324615 C-83.54025058 75.27061417 -78.16424818 69.88036438 -72.78529173 64.49304843 C-66.58960167 58.28756749 -60.40229867 52.07387708 -54.22190577 45.85316157 C-49.43214937 41.03323576 -44.6347332 36.22102071 -39.83152479 31.41450047 C-36.96760449 28.54823311 -34.10706512 25.67877561 -31.2545948 22.80110931 C-28.5735434 20.09675409 -25.88309859 17.40210853 -23.18524361 14.7145195 C-22.19939424 13.72916483 -21.21693478 12.74040452 -20.23823166 11.74795151 C-8.66010864 0.01637072 -8.66010864 0.01637072 0 0 Z " transform="translate(432.4375,-0.4375)" style="fill: rgb(255, 255, 255);"/>
  <path d="M0 0 C6.54584645 3.36178811 11.47108789 9.0006321 16.59643555 14.16894531 C17.74068973 15.31050009 18.88553672 16.45146095 20.03094482 17.59185791 C22.42098203 19.97602123 24.803695 22.36720799 27.18139648 24.76367188 C30.21624662 27.82130983 33.26870532 30.86063415 36.32690811 33.89489365 C38.69175648 36.24522704 41.04692044 38.6050801 43.3993454 40.9678421 C44.52066004 42.09180828 45.64490717 43.21285735 46.77222443 44.33080292 C59.45896773 56.93512588 59.45896773 56.93512588 61.11206055 65.40722656 C61.10174805 66.179375 61.09143555 66.95152344 61.08081055 67.74707031 C61.0962793 68.90916016 61.0962793 68.90916016 61.11206055 70.09472656 C59.49454086 77.98013505 53.48203304 83.15571398 47.94799805 88.54003906 C47.11495148 89.36409744 46.28190491 90.18815582 45.4236145 91.03718567 C42.77477207 93.65612407 40.11621116 96.26487771 37.45581055 98.87207031 C34.78918806 101.49085993 32.12488379 104.11185214 29.46658325 106.73908997 C27.8156303 108.37028845 26.15976284 109.99653117 24.49850464 111.61723328 C23.75077789 112.35512589 23.00305115 113.09301849 22.23266602 113.85327148 C21.57410614 114.49834152 20.91554626 115.14341156 20.23703003 115.80802917 C16.73486308 119.77607835 16.10741664 123.17954078 16.29174805 128.34082031 C17.35199867 136.93744702 23.9042919 142.59960808 29.6081543 148.53613281 C35.66656451 154.88514252 40.01300158 160.29038513 40.95581055 169.24707031 C39.47141807 182.85400136 25.46429063 192.98759928 16.26855469 202.18212891 C14.38081144 204.07208407 12.50125428 205.96994411 10.62182617 207.86816406 C9.40682059 209.08610021 8.19134257 210.30356528 6.9753418 211.52050781 C6.42207718 212.08095795 5.86881256 212.64140808 5.29878235 213.21884155 C-0.04630402 218.53296292 -5.18802733 222.73431315 -12.98168945 223.05957031 C-23.78908245 222.82530601 -30.17590428 216.4115333 -37.30517578 209.05493164 C-38.6851912 207.60636209 -40.05346601 206.14662221 -41.41918945 204.68457031 C-37.2414118 199.69864156 -32.88791669 195.01752747 -28.27075195 190.43847656 C-27.28466446 189.45451149 -27.28466446 189.45451149 -26.27865601 188.45066833 C-24.20286083 186.38041764 -22.12359519 184.3136938 -20.04418945 182.24707031 C-18.62598865 180.8338917 -17.20801769 179.42048238 -15.7902832 178.00683594 C-12.33590169 174.56340966 -8.87840576 171.12313932 -5.41918945 167.68457031 C-10.28197863 161.82583461 -15.5199747 156.44812879 -20.9128418 151.07739258 C-21.85974264 150.13077435 -22.80642226 149.1839348 -23.75289917 148.2368927 C-26.30394813 145.68555867 -28.8580525 143.13730391 -31.41274595 140.58961987 C-34.08911076 137.91953712 -36.76261442 135.24659257 -39.43643188 132.57395935 C-44.4916261 127.52186421 -49.54936237 122.47232202 -54.60803282 117.4237079 C-60.37062888 111.67231735 -66.13036107 105.91806239 -71.88986278 100.16357338 C-83.72980365 88.33406464 -95.57330883 76.50813115 -107.41918945 64.68457031 C-112.82785617 69.25397994 -112.82785617 69.25397994 -117.96777344 74.11962891 C-118.56786728 74.71979828 -119.16796112 75.31996765 -119.78623962 75.93832397 C-120.40632401 76.56356964 -121.02640839 77.18881531 -121.6652832 77.83300781 C-122.32125992 78.49039948 -122.97723663 79.14779114 -123.65309143 79.82510376 C-125.72334213 81.90089893 -127.79006596 83.98016458 -129.85668945 86.05957031 C-131.26986807 87.47777112 -132.68327739 88.89574208 -134.09692383 90.31347656 C-137.5403501 93.76785808 -140.98062045 97.22535401 -144.41918945 100.68457031 C-145.54343075 99.72141848 -146.66760389 98.75818708 -147.79174805 97.79492188 C-148.73079483 96.99033539 -148.73079483 96.99033539 -149.68881226 96.16949463 C-156.48020765 90.34145426 -162.40266963 84.25806514 -163.8293457 75.03222656 C-164.13716892 66.13212037 -160.05807359 60.92404381 -154.20581055 54.6015625 C-149.25187276 49.38572763 -144.19362327 44.27303411 -139.10693359 39.18701172 C-137.21919034 37.29705656 -135.33963319 35.39919651 -133.46020508 33.50097656 C-132.2451995 32.28304041 -131.02972148 31.06557535 -129.8137207 29.84863281 C-129.26045609 29.28818268 -128.70719147 28.72773254 -128.13716125 28.15029907 C-122.74159546 22.78599072 -118.01656339 19.14430771 -110.29418945 18.37207031 C-100.76311297 19.14070551 -95.31382527 23.31983972 -88.90112305 30.1027832 C-82.91981396 36.40241171 -76.17405424 42.69952294 -67.10668945 42.99707031 C-62.48835794 42.95958386 -60.06779588 41.56951493 -56.41918945 38.68457031 C-55.10003125 37.99027652 -53.77269539 37.30926536 -52.41918945 36.68457031 C-52.41918945 36.02457031 -52.41918945 35.36457031 -52.41918945 34.68457031 C-50.9152832 33.23925781 -50.9152832 33.23925781 -48.85668945 31.55957031 C-45.99129023 29.13075556 -43.45620822 26.68787434 -41.04418945 23.80957031 C-37.60298871 19.73695659 -33.72690867 16.31592136 -29.72387695 12.80566406 C-27.75834648 10.99670974 -26.07731765 9.20699482 -24.41918945 7.12207031 C-23.75918945 6.31769531 -23.09918945 5.51332031 -22.41918945 4.68457031 C-21.75918945 4.68457031 -21.09918945 4.68457031 -20.41918945 4.68457031 C-20.41918945 4.02457031 -20.41918945 3.36457031 -20.41918945 2.68457031 C-13.68072221 -2.00305908 -7.77491984 -2.99116516 0 0 Z M-1.98207092 32.12719727 C-2.65491623 32.80226318 -3.32776154 33.4773291 -4.02099609 34.17285156 C-4.78170914 34.93364014 -5.54242218 35.69442871 -6.32618713 36.47827148 C-7.15222946 37.3094751 -7.97827179 38.14067871 -8.8293457 38.99707031 C-9.67138046 39.84052002 -10.51341522 40.68396973 -11.38096619 41.55297852 C-14.08355052 44.26118354 -16.78264687 46.97283593 -19.48168945 49.68457031 C-21.30763351 51.5155267 -23.13380237 53.34625893 -24.96020508 55.17675781 C-29.44914999 59.67675917 -33.93523206 64.1795995 -38.41918945 68.68457031 C-36.56195568 72.71527155 -33.89201479 75.46741055 -30.75512695 78.54394531 C-29.92702011 79.36780731 -29.92702011 79.36780731 -29.08218384 80.20831299 C-27.3241713 81.95516324 -25.55932055 83.69491633 -23.79418945 85.43457031 C-22.59841865 86.62030622 -21.4031008 87.80649911 -20.20825195 88.99316406 C-17.28378692 91.89562117 -14.35317072 94.79173442 -11.41918945 97.68457031 C-8.23659095 96.27947932 -6.10570479 94.61535689 -3.66040039 92.15283203 C-2.57973297 91.07193802 -2.57973297 91.07193802 -1.47723389 89.96920776 C-0.71042297 89.19207428 0.05638794 88.4149408 0.84643555 87.61425781 C2.03653229 86.41991623 2.03653229 86.41991623 3.25067139 85.20144653 C5.78211758 82.65881084 8.30651858 80.10930684 10.83081055 77.55957031 C12.54649672 75.83385278 14.26263716 74.10858676 15.97924805 72.38378906 C20.18505302 68.15594 24.38509561 63.92243162 28.58081055 59.68457031 C24.94300575 55.35386443 21.21735855 51.19340997 17.2175293 47.18847656 C16.74007767 46.71006821 16.26262604 46.23165985 15.77070618 45.73875427 C14.7762607 44.74363608 13.78058277 43.74974802 12.78369141 42.75708008 C11.25067683 41.2294991 9.72317287 39.69654951 8.19604492 38.16308594 C7.22436082 37.19206138 6.25236724 36.2213464 5.2800293 35.25097656 C4.4017749 34.3738501 3.52352051 33.49672363 2.61865234 32.59301758 C0.27594606 30.13279879 0.27594606 30.13279879 -1.98207092 32.12719727 Z " transform="translate(221.419189453125,231.3154296875)" style="fill: rgb(255, 255, 255);"/>
  <path d="M0 0 C-1.36113013 3.04581486 -2.89330096 5.13839026 -5.25634766 7.48339844 C-5.91688141 8.14378113 -6.57741516 8.80416382 -7.25796509 9.48455811 C-8.32523331 10.53634247 -8.32523331 10.53634247 -9.4140625 11.609375 C-10.14370209 12.33618469 -10.87334167 13.06299438 -11.62509155 13.81182861 C-13.9537388 16.12929198 -16.28924826 18.4396995 -18.625 20.75 C-20.20618653 22.32115444 -21.78692125 23.89276371 -23.3671875 25.46484375 C-27.23956799 29.31518761 -31.11800143 33.15935641 -35 37 C-30.13721083 42.8587357 -24.89921475 48.23644152 -19.50634766 53.60717773 C-18.55944681 54.55379596 -17.61276719 55.50063551 -16.66629028 56.44767761 C-14.11524132 58.99901164 -11.56113695 61.5472664 -9.0064435 64.09495044 C-6.33007869 66.76503319 -3.65657504 69.43797774 -0.98275757 72.11061096 C4.07243665 77.16270611 9.13017292 82.21224829 14.18884337 87.26086241 C19.95143942 93.01225297 25.71117162 98.76650792 31.47067332 104.52099693 C43.3106142 116.35050567 55.15411938 128.17643916 67 140 C72.35575913 135.48554137 72.35575913 135.48554137 77.42504883 130.65673828 C78.28547539 129.78651535 78.28547539 129.78651535 79.1632843 128.89871216 C80.05118904 127.99365433 80.05118904 127.99365433 80.95703125 127.0703125 C82.24661653 125.76810214 83.53633377 124.46602244 84.82617188 123.1640625 C86.83384677 121.13141222 88.83987015 119.09717911 90.84350586 117.06054688 C92.79370572 115.08032212 94.74993401 113.10621717 96.70703125 111.1328125 C97.3090889 110.51729523 97.91114655 109.90177795 98.53144836 109.26760864 C99.98345639 107.80680629 101.48722515 106.3977779 103 105 C103.66 105 104.32 105 105 105 C107.22515175 109.4503035 106.17559691 114.13132094 104.75 118.6875 C101.09436505 128.06222934 95.30816609 136.49895205 90 145 C89.12625732 146.40354736 89.12625732 146.40354736 88.23486328 147.83544922 C85.13961186 152.80487412 82.0335204 157.76738995 78.921875 162.7265625 C74.91091354 169.12844242 70.95320289 175.56235226 67 182 C65.66670385 184.16278334 64.33337056 186.32554378 63 188.48828125 C60.28954138 192.88879835 57.60647094 197.3046824 54.9375 201.73046875 C53.62527412 203.88297963 52.31278418 206.03532957 51 208.1875 C50.41347656 209.17298828 49.82695312 210.15847656 49.22265625 211.17382812 C45.18591561 217.75069467 40.60871333 224.46376222 33 227 C31.25511469 227.16948727 29.50248054 227.26599563 27.75 227.3125 C26.83734375 227.34988281 25.9246875 227.38726562 24.984375 227.42578125 C18.38563873 226.48433851 13.62523236 222.06699524 9.09124756 217.47219849 C8.54018727 216.92581817 7.98912697 216.37943784 7.42136788 215.81650054 C5.59112805 213.99815192 3.77171145 212.16935974 1.95214844 210.34033203 C0.63642302 209.02867486 -0.67993907 207.71765607 -1.99688721 206.40722656 C-5.56144675 202.85631478 -9.11648595 199.2960135 -12.66946125 195.73351526 C-16.39247538 192.00289304 -20.12281813 188.27961045 -23.85198975 184.55514526 C-30.11148635 178.30110217 -36.36464076 172.04077004 -42.61425781 165.77685547 C-49.83696823 158.53781225 -57.07043218 151.30964941 -64.30956292 144.08702958 C-70.529246 137.88096432 -76.74305881 131.66906695 -82.95201087 125.45226562 C-86.65841695 121.74118561 -90.36681274 118.03215494 -94.080513 114.32837296 C-97.57080098 110.84675684 -101.05365706 107.35787231 -104.53093719 103.86326599 C-105.80743914 102.58280074 -107.08649454 101.30487515 -108.36828613 100.02970505 C-110.11895633 98.28724604 -111.8601034 96.53578611 -113.59918213 94.7817688 C-114.10705584 94.28058725 -114.61492955 93.77940571 -115.13819337 93.26303685 C-118.91254095 89.42565411 -121.62486594 85.61858288 -122.3984375 80.21875 C-122.34372843 73.87249774 -122.15276875 69.14300181 -117.42382812 64.42871094 C-112.15991674 59.71617933 -106.57897011 56.07475836 -100.5 52.5 C-98.44319495 51.26959131 -96.38723117 50.03777543 -94.33203125 48.8046875 C-93.28225098 48.1765918 -92.2324707 47.54849609 -91.15087891 46.90136719 C-86.125599 43.86891097 -81.15682724 40.74801268 -76.1875 37.625 C-65.52748179 30.93999268 -54.82659164 24.32380795 -44.09765625 17.75 C-40.29775613 15.42035935 -36.51313139 13.06988503 -32.74609375 10.6875 C-8.79149374 -4.39574687 -8.79149374 -4.39574687 0 0 Z M-54.75 73.9375 C-55.42675781 74.56914062 -56.10351562 75.20078125 -56.80078125 75.8515625 C-57.88939453 76.91503906 -57.88939453 76.91503906 -59 78 C-59.81855469 78.79148437 -60.63710938 79.58296875 -61.48046875 80.3984375 C-66.81363795 85.2255422 -66.81363795 85.2255422 -69.5 91.625 C-68.95127454 95.32889686 -68.35110725 96.07555459 -65.91804504 98.7535553 C-65.27989679 99.45712221 -64.64174854 100.16068913 -63.98426247 100.88557625 C-60.9807492 104.0861104 -57.91979406 107.21964825 -54.8112793 110.31811523 C-54.13071976 111.00042709 -53.45016022 111.68273895 -52.74897766 112.38572693 C-50.52654555 114.61251681 -48.30052801 116.8356807 -46.07421875 119.05859375 C-44.5194513 120.61403552 -42.96483226 122.16962565 -41.41035461 123.72535706 C-38.16671161 126.97046839 -34.92128148 130.21377876 -31.67456055 133.45581055 C-27.50696923 137.61767645 -23.34392178 141.78405419 -19.18217754 145.95176601 C-15.97991586 149.15763237 -12.77528731 152.3611242 -9.56992531 155.56389046 C-8.03294219 157.10020552 -6.49670425 158.63726644 -4.96121788 160.17507744 C-2.82379927 162.31502408 -0.6832216 164.45175875 1.45825195 166.58764648 C2.09461578 167.22603455 2.73097961 167.86442261 3.3866272 168.52215576 C7.39310769 172.62070232 7.39310769 172.62070232 12.625 174.5 C17.811398 173.73164474 20.35480984 170.58597227 24 167 C24.81726563 166.26652344 25.63453125 165.53304687 26.4765625 164.77734375 C30.10258485 161.42183417 32.63816447 159.01658554 34.3125 154.3125 C33.64822855 147.27122263 27.78697674 142.49849069 23 137.74121094 C22.30358398 137.04129028 21.60716797 136.34136963 20.88964844 135.62023926 C18.59808707 133.31991174 16.29933093 131.02693438 14 128.734375 C12.40074903 127.13377622 10.80179501 125.5328807 9.203125 123.93170166 C5.85740894 120.58304153 2.50811327 117.2380145 -0.84375 113.89550781 C-5.14135872 109.60931156 -9.42990207 105.31417476 -13.71582031 101.01629257 C-17.01327822 97.71161254 -20.31547875 94.4117048 -23.61914062 91.11322784 C-25.20266575 89.53103728 -26.78470544 87.9473586 -28.36523438 86.36217499 C-30.57202262 84.15031385 -32.78510979 81.94495495 -35 79.74121094 C-35.65258789 79.08457458 -36.30517578 78.42793823 -36.97753906 77.75140381 C-37.58307617 77.15150635 -38.18861328 76.55160889 -38.8125 75.93353271 C-39.33457031 75.41221645 -39.85664063 74.89090019 -40.39453125 74.35378647 C-42.95140661 72.19774123 -45.19612732 71.09861171 -48.515625 70.69140625 C-51.538642 71.06690679 -52.55026955 71.86467708 -54.75 73.9375 Z " transform="translate(331,76)" style="fill: rgb(255, 255, 255);"/>
</svg>